<svg width="24" height="24" viewBox="0 0 24 24" fill="none" xmlns="http://www.w3.org/2000/svg">
<rect width="24" height="24" fill="white" style="mix-blend-mode:multiply"/>
<rect x="6" y="6" width="12" height="12" fill="black"/>
<rect width="24" height="24" fill="white" style="mix-blend-mode:multiply"/>
<path d="M12.0002 1.49999C10.6189 1.49142 9.2497 1.75717 7.97191 2.28181C6.69413 2.80645 5.53321 3.57955 4.55649 4.55627C3.57976 5.533 2.80666 6.69391 2.28202 7.9717C1.75738 9.24949 1.49164 10.6187 1.5002 12C1.49164 13.3813 1.75738 14.7505 2.28202 16.0283C2.80666 17.3061 3.57976 18.467 4.55649 19.4437C5.53321 20.4204 6.69413 21.1935 7.97191 21.7182C9.2497 22.2428 10.6189 22.5086 12.0002 22.5C13.3815 22.5086 14.7507 22.2428 16.0285 21.7182C17.3063 21.1935 18.4672 20.4204 19.4439 19.4437C20.4206 18.467 21.1937 17.3061 21.7184 16.0283C22.243 14.7505 22.5088 13.3813 22.5002 12C22.5088 10.6187 22.243 9.24949 21.7184 7.9717C21.1937 6.69391 20.4206 5.533 19.4439 4.55627C18.4672 3.57955 17.3063 2.80645 16.0285 2.28181C14.7507 1.75717 13.3815 1.49142 12.0002 1.49999ZM16.0839 17.25L6.7502 7.91676L7.91698 6.74999L17.2502 16.0836L16.0839 17.25Z" fill="#FA4D56"/>
</svg>
