<svg width="284" height="73" viewBox="0 0 284 73" fill="none" xmlns="http://www.w3.org/2000/svg">
<rect y="13.2834" width="255" height="56" fill="#161616"/>
<path d="M27 41H201M201 41L186 26M201 41L186 56" stroke="white"/>
<rect x="211" y="9" width="64" height="64" fill="black" fill-opacity="0.24"/>
<rect x="219" y="1" width="64" height="64" fill="#FBA3FF" stroke="black"/>
<g clip-path="url(#clip0_12576_555807)">
<rect width="48" height="48" transform="translate(227 9)" fill="white" style="mix-blend-mode:multiply"/>
<path d="M254.541 34.5C254.541 35.625 253.626 36.54 252.501 36.54H251.541V38.25H250.461V36.54H248.001V35.46H252.501C253.03 35.46 253.461 35.0295 253.461 34.5C253.461 33.9705 253.03 33.54 252.501 33.54H249.501C248.376 33.54 247.462 32.625 247.462 31.5C247.462 30.375 248.377 29.46 249.501 29.46H250.462V27.75H251.542V29.46H254.001V30.54H249.501C248.971 30.54 248.541 30.9705 248.541 31.5C248.541 32.0295 248.971 32.46 249.501 32.46H252.501C253.626 32.46 254.541 33.375 254.541 34.5ZM261.858 36.54L261.181 38.1735L263.431 40.4235L258.424 45.4305L256.174 43.1805L254.541 43.857V47.04H247.461V43.857L245.826 43.1805L243.576 45.4305L238.569 40.4235L240.819 38.1735L240.142 36.54H236.961V29.46H240.142L240.819 27.825L238.569 25.575L243.576 20.568L245.826 22.818L247.461 22.1415V18.96H254.541V22.1415L256.174 22.818L258.424 20.568L263.431 25.575L261.181 27.825L261.858 29.46H265.041V36.54H261.858ZM259.908 38.4285L261.138 35.46H263.961V30.54H261.138L259.908 27.5715L261.906 25.575L258.426 22.0965L256.431 24.093L253.461 22.8645V20.04H248.541V22.8645L245.572 24.093L243.576 22.0965L240.097 25.575L242.094 27.5715L240.865 30.54H238.041V35.46H240.865L242.094 38.4285L240.097 40.4235L243.576 43.9035L245.572 41.9055L248.541 43.1355V45.9585H253.461V43.1355L256.429 41.9055L258.424 43.9035L261.904 40.4235L259.908 38.4285ZM251.001 11.04C257.604 11.04 263.698 13.9125 267.886 18.96H263.001V20.04H269.541V13.5H268.461V17.967C264.076 12.858 257.796 9.95996 251.001 9.95996C238.296 9.95996 227.961 20.295 227.961 33H229.041C229.041 20.8905 238.891 11.04 251.001 11.04ZM272.961 33C272.961 45.108 263.11 54.96 251.001 54.96C244.398 54.96 238.303 52.0875 234.115 47.0415H239.001V45.96H232.461V52.5H233.541V48.033C237.925 53.142 244.206 56.04 251.001 56.04C263.706 56.04 274.041 45.7035 274.041 33H272.961Z" fill="#161616"/>
</g>
<defs>
<clipPath id="clip0_12576_555807">
<rect width="48" height="48" fill="white" transform="translate(227 9)"/>
</clipPath>
</defs>
</svg>
