<svg width="448" height="350" viewBox="0 0 448 350" fill="none" xmlns="http://www.w3.org/2000/svg">
<rect x="64.5" y="5.5" width="375" height="112" fill="#232323" stroke="white"/>
<rect x="65.5" y="6.5" width="373" height="110" fill="#A5F59C" stroke="#161616"/>
<rect width="55.6596" height="55.6596" transform="translate(355.51 33.8298)" fill="white" style="mix-blend-mode:multiply"/>
<path d="M409.43 88.3762H357.249C356.903 88.3762 356.623 88.0962 356.623 87.7501V35.5692H357.875V61.0335H365.369C365.671 59.0663 367.376 57.5547 369.426 57.5547C371.689 57.5547 373.531 59.3967 373.531 61.6596C373.531 62.5345 373.257 63.3486 372.787 64.0147L380.986 72.2141C382.063 71.4557 383.625 71.2661 384.865 71.7619L396.75 51.1817C395.63 50.4477 394.889 49.1815 394.889 47.7447C394.889 45.4818 396.731 43.6399 398.994 43.6399C401.045 43.6399 402.749 45.1514 403.052 47.1186H409.43V48.3709H403.052C402.749 50.3381 401.045 51.8496 398.994 51.8496C398.613 51.8496 398.246 51.7975 397.896 51.7018L385.942 72.4019C386.858 73.1568 387.445 74.2978 387.445 75.5745C387.445 77.8392 385.603 79.6794 383.34 79.6794C381.077 79.6794 379.235 77.8374 379.235 75.5745C379.235 74.637 379.55 73.7726 380.08 73.0803L371.917 64.9192C371.227 65.4497 370.362 65.7645 369.425 65.7645C367.374 65.7645 365.669 64.253 365.367 62.2858H357.875V87.1239H409.43V88.3762ZM383.34 72.722C381.767 72.722 380.487 74.0004 380.487 75.5745C380.487 77.1487 381.767 78.4271 383.34 78.4271C384.912 78.4271 386.192 77.1487 386.192 75.5745C386.192 74.0004 384.912 72.722 383.34 72.722ZM366.572 61.6596C366.572 63.232 367.852 64.5122 369.425 64.5122C370.997 64.5122 372.277 63.232 372.277 61.6596C372.277 60.0873 370.997 58.8071 369.425 58.8071C367.852 58.8071 366.572 60.0873 366.572 61.6596ZM398.994 44.8922C397.422 44.8922 396.141 46.1724 396.141 47.7447C396.141 49.3171 397.422 50.5973 398.994 50.5973C400.566 50.5973 401.846 49.3171 401.846 47.7447C401.846 46.1724 400.566 44.8922 398.994 44.8922Z" fill="#161616"/>
<rect x="64.5" y="117.5" width="375" height="115" fill="#232323" stroke="white"/>
<rect x="159.5" y="118.5" width="279" height="112" fill="#FFDD72" stroke="#161616"/>
<rect width="55.6596" height="55.6596" transform="translate(355.51 146.18)" fill="white" style="mix-blend-mode:multiply"/>
<path d="M409.43 200.726H357.249C356.903 200.726 356.623 200.446 356.623 200.1V147.919H357.875V173.383H374.643C374.81 173.383 374.968 173.449 375.085 173.566L388.817 187.296H409.43V188.551H388.558C388.391 188.551 388.231 188.484 388.114 188.368L374.384 174.636H357.875V199.474H409.43V200.726ZM397.255 172.896C390.194 172.896 384.453 167.153 384.453 160.095C384.453 153.036 390.194 147.293 397.255 147.293C404.315 147.293 410.056 153.036 410.056 160.095C410.056 167.153 404.315 172.896 397.255 172.896ZM385.723 160.721C386.037 166.593 390.758 171.312 396.628 171.628V168.791H397.882V171.627C403.753 171.312 408.473 166.591 408.788 160.719H405.951V159.468H408.787C408.472 153.596 403.751 148.877 397.881 148.561V151.398H396.628V148.563C390.758 148.877 386.037 153.598 385.723 159.47H388.558V160.722H385.723V160.721ZM400.29 164.015L396.811 160.536C396.694 160.42 396.628 160.262 396.628 160.095V153.137H397.882V159.835L401.179 163.131L400.29 164.015Z" fill="#161616"/>
<rect x="64.5" y="231.5" width="375" height="113" fill="#232323" stroke="white"/>
<rect x="251.5" y="232.5" width="187" height="111" fill="#FF968E" stroke="#161616"/>
<rect width="55.6596" height="55.6596" transform="translate(355.51 259.56)" fill="white" style="mix-blend-mode:multiply"/>
<path d="M409.43 314.107H357.249C356.903 314.107 356.623 313.827 356.623 313.481V261.3H357.875V312.854H409.43V314.107ZM404.212 308.889C401.947 308.889 400.107 307.047 400.107 304.784C400.107 304.497 400.138 304.217 400.194 303.947L393.877 301.576C393.171 302.825 391.831 303.671 390.297 303.671C388.246 303.671 386.542 302.159 386.239 300.192H380.44C380.137 302.159 378.433 303.671 376.382 303.671C374.119 303.671 372.277 301.829 372.277 299.566C372.277 297.955 373.21 296.558 374.563 295.887L366.57 270.576C366.367 270.607 366.158 270.623 365.946 270.623C363.683 270.623 361.841 268.781 361.841 266.518C361.841 264.255 363.683 262.413 365.946 262.413C368.209 262.413 370.051 264.255 370.051 266.518C370.051 268.128 369.119 269.525 367.765 270.197L375.758 295.508C375.961 295.476 376.17 295.461 376.382 295.461C378.433 295.461 380.137 296.972 380.44 298.939H386.239C386.542 296.972 388.246 295.461 390.297 295.461C392.562 295.461 394.402 297.303 394.402 299.566C394.402 299.853 394.371 300.133 394.315 300.402L400.632 302.773C401.337 301.522 402.678 300.677 404.212 300.677C406.477 300.677 408.317 302.519 408.317 304.782C408.317 307.045 406.477 308.889 404.212 308.889ZM404.212 301.931C402.64 301.931 401.359 303.21 401.359 304.784C401.359 306.358 402.638 307.636 404.212 307.636C405.786 307.636 407.065 306.358 407.065 304.784C407.065 303.21 405.784 301.931 404.212 301.931ZM390.297 296.713C388.725 296.713 387.445 297.992 387.445 299.566C387.445 301.14 388.723 302.418 390.297 302.418C391.871 302.418 393.15 301.14 393.15 299.566C393.15 297.992 391.869 296.713 390.297 296.713ZM376.382 296.713C374.81 296.713 373.53 297.992 373.53 299.566C373.53 301.14 374.81 302.418 376.382 302.418C377.955 302.418 379.235 301.14 379.235 299.566C379.235 297.992 377.955 296.713 376.382 296.713ZM365.946 263.665C364.374 263.665 363.093 264.945 363.093 266.518C363.093 268.09 364.374 269.37 365.946 269.37C367.518 269.37 368.799 268.09 368.799 266.518C368.799 264.945 367.518 263.665 365.946 263.665Z" fill="#161616"/>
<rect opacity="0.3" x="4" y="42.1063" width="205.116" height="55.6596" rx="27.8298" fill="white"/>
<rect x="9.68359" y="34.3297" width="204.116" height="54.6596" rx="27.3298" fill="#F4F4F4" stroke="#161616"/>
<path d="M64.8438 61.6595L148.333 61.6596" stroke="#161616"/>
<rect width="32.9835" height="32.9835" transform="translate(20.5215 45.1677)" fill="white" style="mix-blend-mode:multiply"/>
<rect x="28.7676" y="53.4136" width="16.4917" height="16.4917" fill="black"/>
<rect width="32.9835" height="32.9835" transform="translate(20.5215 45.1677)" fill="white" style="mix-blend-mode:multiply"/>
<path d="M37.0123 47.2292C34.1583 47.2292 31.3683 48.0756 28.9953 49.6612C26.6222 51.2468 24.7727 53.5005 23.6805 56.1373C22.5883 58.7741 22.3025 61.6755 22.8593 64.4747C23.4161 67.2739 24.7905 69.8451 26.8086 71.8632C28.8267 73.8814 31.3979 75.2557 34.1971 75.8125C36.9963 76.3693 39.8977 76.0835 42.5345 74.9913C45.1713 73.8991 47.425 72.0496 49.0106 69.6765C50.5962 67.3035 51.4426 64.5135 51.4426 61.6595C51.4426 57.8324 49.9222 54.162 47.216 51.4558C44.5098 48.7496 40.8394 47.2292 37.0123 47.2292ZM34.9508 67.4221L29.7972 62.2685L31.4367 60.6288L34.9508 64.1428L42.5886 56.5058L44.2333 58.1405L34.9508 67.4221Z" fill="#00D66F"/>
<rect opacity="0.3" x="4" y="154.456" width="205.116" height="55.6596" rx="27.8298" fill="white"/>
<rect x="9.68359" y="146.68" width="204.116" height="54.6596" rx="27.3298" fill="#F4F4F4" stroke="#161616"/>
<path d="M64.8438 174.01L148.333 174.01" stroke="#161616"/>
<rect width="32.9835" height="32.9835" transform="translate(20.5215 157.518)" fill="white" style="mix-blend-mode:multiply"/>
<rect x="32.8906" y="167.825" width="8.24586" height="18.5532" fill="black"/>
<rect width="32.9835" height="32.9835" transform="translate(20.5215 157.518)" fill="white" style="mix-blend-mode:multiply"/>
<path d="M37.0144 163.879H37.0102L25.3121 186.375L25.3141 186.378H48.7105L48.7125 186.375L37.0144 163.879ZM35.8527 169.886H38.1719V179.163H35.8527V169.886ZM37.0123 184.317C36.7065 184.317 36.4076 184.226 36.1533 184.056C35.8991 183.886 35.7009 183.645 35.5839 183.362C35.4669 183.08 35.4363 182.769 35.4959 182.469C35.5556 182.169 35.7028 181.894 35.919 181.677C36.1353 181.461 36.4108 181.314 36.7107 181.254C37.0106 181.195 37.3215 181.225 37.604 181.342C37.8865 181.459 38.1279 181.657 38.2978 181.912C38.4677 182.166 38.5584 182.465 38.5584 182.771C38.5584 183.181 38.3955 183.574 38.1056 183.864C37.8156 184.154 37.4224 184.317 37.0123 184.317Z" fill="#F1C21B"/>
<path d="M50.4118 188.44H23.6128C23.4357 188.44 23.2616 188.394 23.1073 188.307C22.9529 188.22 22.8236 188.095 22.7317 187.944C22.6398 187.792 22.5884 187.62 22.5826 187.443C22.5767 187.266 22.6166 187.09 22.6983 186.933L36.0978 161.165C36.1849 160.998 36.3162 160.857 36.4774 160.76C36.6386 160.662 36.8237 160.61 37.0123 160.61C37.2009 160.61 37.3859 160.662 37.5472 160.76C37.7084 160.857 37.8397 160.998 37.9268 161.165L51.3263 186.933C51.408 187.09 51.4479 187.266 51.442 187.443C51.4362 187.62 51.3848 187.792 51.2929 187.944C51.201 188.095 51.0717 188.22 50.9173 188.307C50.763 188.394 50.5889 188.44 50.4118 188.44ZM25.3141 186.378H48.7105L48.7125 186.375L37.0144 163.879H37.0102L25.3121 186.375L25.3141 186.378Z" fill="#F1C21B"/>
<rect opacity="0.3" x="4" y="267.837" width="205.116" height="55.6596" rx="27.8298" fill="white"/>
<rect x="9.68359" y="260.06" width="204.116" height="54.6596" rx="27.3298" fill="#F4F4F4" stroke="#161616"/>
<path d="M64.8438 287.39L148.333 287.39" stroke="#161616"/>
<rect width="32.9835" height="32.9835" transform="translate(20.5215 270.898)" fill="white" style="mix-blend-mode:multiply"/>
<rect x="28.7676" y="279.144" width="16.4917" height="16.4917" fill="black"/>
<rect width="32.9835" height="32.9835" transform="translate(20.5215 270.898)" fill="white" style="mix-blend-mode:multiply"/>
<path d="M37.0126 272.96C35.1143 272.948 33.2325 273.313 31.4764 274.034C29.7204 274.755 28.1249 275.818 26.7826 277.16C25.4403 278.502 24.3778 280.098 23.6568 281.854C22.9358 283.61 22.5705 285.492 22.5823 287.39C22.5705 289.288 22.9358 291.17 23.6568 292.926C24.3778 294.682 25.4403 296.278 26.7826 297.62C28.1249 298.962 29.7204 300.025 31.4764 300.746C33.2325 301.467 35.1143 301.832 37.0126 301.82C38.9109 301.832 40.7926 301.467 42.5487 300.746C44.3048 300.025 45.9002 298.962 47.2425 297.62C48.5849 296.278 49.6473 294.682 50.3684 292.926C51.0894 291.17 51.4546 289.288 51.4428 287.39C51.4546 285.492 51.0894 283.61 50.3684 281.854C49.6473 280.098 48.5849 278.502 47.2425 277.16C45.9002 275.818 44.3048 274.755 42.5487 274.034C40.7926 273.313 38.9109 272.948 37.0126 272.96ZM42.6248 294.605L29.7974 281.778L31.4009 280.175L44.2277 293.002L42.6248 294.605Z" fill="#FA4D56"/>
</svg>
