<svg width="992" height="156" viewBox="0 0 992 156" fill="none" xmlns="http://www.w3.org/2000/svg">
<g clip-path="url(#clip0_12560_553570)">
<rect x="70" y="83" width="121" height="73" fill="#8D8D8D" fill-opacity="0.12"/>
<rect x="208" y="72" width="52" height="84" fill="#8D8D8D" fill-opacity="0.12"/>
<rect x="277" y="61" width="86" height="95" fill="#8D8D8D" fill-opacity="0.12"/>
<rect x="381" y="46" width="86" height="110" fill="#8D8D8D" fill-opacity="0.12"/>
<rect x="484" y="6" width="501" height="150" fill="#8D8D8D" fill-opacity="0.12"/>
<rect width="45" height="45" transform="matrix(-1 0 0 1 737 20)" fill="white" style="mix-blend-mode:multiply"/>
<path d="M696.485 57.7044L702.574 54.1888L702.069 53.3127L695.98 56.8283L696.485 57.7044ZM693.406 47.225H700.438V46.2125H693.406V47.225ZM714.5 47.225L735.594 47.218V46.2041L714.5 46.2111V47.225ZM702.069 40.1263L702.574 39.2487L696.485 35.7331L695.98 36.6106L702.069 40.1263ZM726.931 40.1263L733.02 36.6106L732.514 35.7331L726.425 39.2487L726.931 40.1263ZM707.03 34.7938L707.906 34.2875L704.39 28.1984L703.514 28.7047L707.03 34.7938ZM721.97 34.7938L725.486 28.7047L724.608 28.1984L721.092 34.2875L721.97 34.7938ZM713.994 32.6562H715.006V25.625H713.994V32.6562Z" fill="#161616"/>
<mask id="mask0_12560_553570" style="mask-type:alpha" maskUnits="userSpaceOnUse" x="1" y="1" width="990" height="157">
<path d="M54.8443 136.342H1V158H991V1L969.891 17.0769C969.194 17.6074 968.343 17.8947 967.467 17.8947H931.941C931.235 17.8947 930.542 18.0817 929.931 18.4365L854.788 62.116C854.177 62.4709 853.484 62.6578 852.777 62.6578L450.184 62.658C448.823 62.658 447.555 63.3501 446.819 64.495L435.681 81.821C434.945 82.9659 433.677 83.658 432.316 83.658H380.18C379.41 83.658 378.656 83.8802 378.009 84.298L345.77 105.123C345.123 105.541 344.369 105.763 343.599 105.763H275.501C275.168 105.763 274.837 105.805 274.514 105.887L229.375 117.376C229.052 117.458 228.721 117.5 228.388 117.5H208.915C207.616 117.5 206.398 118.131 205.649 119.191L193.195 136.809C192.446 137.869 191.228 138.5 189.929 138.5H134.25C133.134 138.5 132.069 138.034 131.312 137.215L123.864 129.154C123.107 128.334 122.042 127.868 120.926 127.868H71.5781C70.872 127.868 70.1784 128.055 69.5679 128.41L56.8545 135.8C56.244 136.155 55.5505 136.342 54.8443 136.342Z" fill="#D9D9D9"/>
</mask>
<g mask="url(#mask0_12560_553570)">
<rect x="1.5" y="1.5" width="16.5172" height="156" fill="#8D8D8D" fill-opacity="0.2" stroke="black"/>
<rect x="36.0173" y="1.5" width="16.5172" height="156" fill="#8D8D8D" fill-opacity="0.2" stroke="black"/>
<rect x="70.0344" y="1" width="17.5172" height="157" fill="#B283FF" stroke="black"/>
<rect x="105.052" y="1.5" width="16.5172" height="156" fill="#8D8D8D" fill-opacity="0.2" stroke="black"/>
<rect x="139.569" y="1.5" width="16.5172" height="156" fill="#8D8D8D" fill-opacity="0.2" stroke="black"/>
<rect x="174.086" y="1.5" width="16.5172" height="156" fill="#8D8D8D" fill-opacity="0.2" stroke="black"/>
<rect x="208.104" y="1" width="17.5172" height="157" fill="#FBA3FF" stroke="black"/>
<rect x="243.121" y="1.5" width="16.5172" height="156" fill="#8D8D8D" fill-opacity="0.2" stroke="black"/>
<rect x="277.138" y="1" width="17.5172" height="157" fill="#8EB5FF" stroke="black"/>
<rect x="312.155" y="1.5" width="16.5172" height="156" fill="#8D8D8D" fill-opacity="0.2" stroke="black"/>
<rect x="346.672" y="1.5" width="16.5172" height="156" fill="#8D8D8D" fill-opacity="0.2" stroke="black"/>
<path d="M380.69 1H398.207V158H380.69V1Z" fill="#A5F59C" style="mix-blend-mode:multiply"/>
<path d="M380.69 1V0.5H380.19V1H380.69ZM398.207 1H398.707V0.5H398.207V1ZM398.207 158V158.5H398.707V158H398.207ZM380.69 158H380.19V158.5H380.69V158ZM380.69 1.5H398.207V0.5H380.69V1.5ZM397.707 1V158H398.707V1H397.707ZM398.207 157.5H380.69V158.5H398.207V157.5ZM381.19 158V1H380.19V158H381.19Z" fill="black"/>
<rect x="415.707" y="1.5" width="16.5172" height="156" fill="#8D8D8D" fill-opacity="0.2" stroke="black"/>
<rect x="450.224" y="1.5" width="16.5172" height="156" fill="#8D8D8D" fill-opacity="0.2" stroke="black"/>
<rect x="484.241" y="1" width="17.5172" height="157" fill="#94F0F0" style="mix-blend-mode:multiply"/>
<rect x="484.241" y="1" width="17.5172" height="157" stroke="black"/>
<rect x="519.259" y="1.5" width="16.5172" height="156" fill="#8D8D8D" fill-opacity="0.2" stroke="black"/>
<rect x="553.776" y="1.5" width="16.5172" height="156" fill="#8D8D8D" fill-opacity="0.2" stroke="black"/>
<rect x="588.293" y="1.5" width="16.5172" height="156" fill="#8D8D8D" fill-opacity="0.2" stroke="black"/>
<rect x="622.81" y="1.5" width="16.5172" height="156" fill="#8D8D8D" fill-opacity="0.2" stroke="black"/>
<rect x="657.328" y="1.5" width="16.5172" height="156" fill="#8D8D8D" fill-opacity="0.2" stroke="black"/>
<rect x="691.845" y="1.5" width="16.5172" height="156" fill="#8D8D8D" fill-opacity="0.2" stroke="black"/>
<rect x="726.362" y="1.5" width="16.5172" height="156" fill="#8D8D8D" fill-opacity="0.2" stroke="black"/>
<rect x="760.879" y="1.5" width="16.5172" height="156" fill="#8D8D8D" fill-opacity="0.2" stroke="black"/>
<rect x="795.396" y="1.5" width="16.5172" height="156" fill="#8D8D8D" fill-opacity="0.2" stroke="black"/>
<rect x="829.914" y="1.5" width="16.5172" height="156" fill="#8D8D8D" fill-opacity="0.2" stroke="black"/>
<rect x="864.431" y="1.5" width="16.5172" height="156" fill="#8D8D8D" fill-opacity="0.2" stroke="black"/>
<rect x="898.948" y="1.5" width="16.5172" height="156" fill="#8D8D8D" fill-opacity="0.2" stroke="black"/>
<rect x="933.465" y="1.5" width="16.5172" height="156" fill="#8D8D8D" fill-opacity="0.2" stroke="black"/>
<rect x="967.982" y="1.5" width="16.5172" height="156" fill="#8D8D8D" fill-opacity="0.2" stroke="black"/>
</g>
<path d="M1 136.342H54.8443C55.5505 136.342 56.244 136.155 56.8545 135.8L69.5679 128.41C70.1784 128.055 70.872 127.868 71.5781 127.868H120.926C122.042 127.868 123.107 128.334 123.864 129.154L131.312 137.215C132.069 138.034 133.134 138.5 134.25 138.5H189.929C191.228 138.5 192.446 137.869 193.195 136.809L205.649 119.191C206.398 118.131 207.616 117.5 208.915 117.5H228.388C228.721 117.5 229.052 117.458 229.375 117.376L274.514 105.887C274.837 105.805 275.168 105.763 275.501 105.763H343.599C344.369 105.763 345.123 105.541 345.77 105.123L378.009 84.298C378.656 83.8802 379.41 83.658 380.18 83.658H432.316C433.677 83.658 434.945 82.9659 435.681 81.821L446.819 64.495C447.555 63.3501 448.823 62.658 450.184 62.658L852.777 62.6578C853.484 62.6578 854.177 62.4709 854.788 62.116L929.931 18.4365C930.542 18.0817 931.235 17.8947 931.941 17.8947H967.467C968.343 17.8947 969.194 17.6074 969.891 17.0769L991 1M991 1H979M991 1V12" stroke="#161616"/>
<path d="M493 156L493 64" stroke="black" stroke-dasharray="6 3"/>
<circle cx="493" cy="63" r="3.5" fill="#161616" stroke="#161616"/>
<path d="M389 158L389 85" stroke="black" stroke-dasharray="6 3"/>
<circle cx="389" cy="84" r="3.5" fill="#161616" stroke="#161616"/>
<path d="M286 158L286 107" stroke="black" stroke-dasharray="6 3"/>
<circle cx="286" cy="106" r="3.5" fill="#161616" stroke="#161616"/>
<path d="M217 158L217 119" stroke="black" stroke-dasharray="6 3"/>
<circle cx="217" cy="118" r="3.5" fill="#161616" stroke="#161616"/>
<path d="M79 158L79 129" stroke="black" stroke-dasharray="6 3"/>
<circle cx="79" cy="128" r="3.5" fill="#161616" stroke="#161616"/>
<path opacity="0.2" d="M70 1L70 156" stroke="black" stroke-dasharray="6 3"/>
<path opacity="0.2" d="M191 1L191 156" stroke="black" stroke-dasharray="6 3"/>
<path opacity="0.2" d="M208 1L208 156" stroke="black" stroke-dasharray="6 3"/>
<path opacity="0.2" d="M260 1L260 156" stroke="black" stroke-dasharray="6 3"/>
<path opacity="0.2" d="M277 1L277 156" stroke="black" stroke-dasharray="6 3"/>
<path opacity="0.2" d="M363 1L363 156" stroke="black" stroke-dasharray="6 3"/>
<path opacity="0.2" d="M381 1L381 156" stroke="black" stroke-dasharray="6 3"/>
<path opacity="0.2" d="M467 1L467 156" stroke="black" stroke-dasharray="6 3"/>
<path opacity="0.2" d="M484 1L484 156" stroke="black" stroke-dasharray="6 3"/>
<path d="M70 43V47M70 51V47M70 47H191M191 47V43M191 47V51" stroke="#198038"/>
<path d="M208 43V47M208 51V47M208 47H260M260 47V43M260 47V51" stroke="#198038"/>
<path d="M277 43V47M277 51V47M277 47H363M363 47V43M363 47V51" stroke="#198038"/>
<path d="M381 43V47M381 51V47M381 47H467M467 47V43M467 47V51" stroke="#198038"/>
<path d="M493 43V47M493 51V47M493 47H684M684 47L677.315 40M684 47L677.315 54" stroke="#198038"/>
<circle cx="79" cy="113" r="7.5" fill="#A5F59C" stroke="black"/>
<path d="M75 113L77.75 115.75L83 110.5" stroke="black"/>
<circle cx="217" cy="103" r="7.5" fill="#A5F59C" stroke="black"/>
<path d="M213 103L215.75 105.75L221 100.5" stroke="black"/>
<circle cx="286" cy="91" r="7.5" fill="#A5F59C" stroke="black"/>
<path d="M282 91L284.75 93.75L290 88.5" stroke="black"/>
<circle cx="389" cy="69" r="7.5" fill="#A5F59C" stroke="black"/>
<path d="M385 69L387.75 71.75L393 66.5" stroke="black"/>
<circle cx="493" cy="47" r="7.5" fill="#A5F59C" stroke="black"/>
<path d="M489 47L491.75 49.75L497 44.5" stroke="black"/>
<g filter="url(#filter0_d_12560_553570)">
<rect x="705" y="42" width="150" height="28" rx="14" fill="white" shape-rendering="crispEdges"/>
<path d="M714.312 62V50.832H721.496V52.704H716.424V55.408H720.84V57.28H716.424V62H714.312ZM724.442 52.432C724.016 52.432 723.706 52.336 723.514 52.144C723.333 51.952 723.242 51.7067 723.242 51.408V51.088C723.242 50.7893 723.333 50.544 723.514 50.352C723.706 50.16 724.016 50.064 724.442 50.064C724.858 50.064 725.162 50.16 725.354 50.352C725.546 50.544 725.642 50.7893 725.642 51.088V51.408C725.642 51.7067 725.546 51.952 725.354 52.144C725.162 52.336 724.858 52.432 724.442 52.432ZM723.418 53.648H725.466V62H723.418V53.648ZM727.84 62V53.648H729.888V55.04H729.968C730.139 54.592 730.406 54.2187 730.768 53.92C731.142 53.6107 731.654 53.456 732.304 53.456C733.168 53.456 733.83 53.7387 734.288 54.304C734.747 54.8693 734.976 55.6747 734.976 56.72V62H732.928V56.928C732.928 56.3307 732.822 55.8827 732.608 55.584C732.395 55.2853 732.043 55.136 731.552 55.136C731.339 55.136 731.131 55.168 730.928 55.232C730.736 55.2853 730.56 55.3707 730.4 55.488C730.251 55.5947 730.128 55.7333 730.032 55.904C729.936 56.064 729.888 56.256 729.888 56.48V62H727.84ZM743.391 62C742.943 62 742.585 61.872 742.319 61.616C742.063 61.3493 741.903 60.9973 741.839 60.56H741.743C741.604 61.104 741.321 61.5147 740.895 61.792C740.468 62.0587 739.94 62.192 739.311 62.192C738.457 62.192 737.801 61.968 737.343 61.52C736.884 61.072 736.655 60.4747 736.655 59.728C736.655 58.864 736.964 58.224 737.583 57.808C738.201 57.3813 739.081 57.168 740.223 57.168H741.647V56.56C741.647 56.0907 741.524 55.728 741.279 55.472C741.033 55.216 740.639 55.088 740.095 55.088C739.615 55.088 739.225 55.1947 738.927 55.408C738.639 55.6107 738.393 55.856 738.191 56.144L736.975 55.056C737.284 54.576 737.695 54.192 738.207 53.904C738.719 53.6053 739.396 53.456 740.239 53.456C741.369 53.456 742.228 53.712 742.815 54.224C743.401 54.736 743.695 55.472 743.695 56.432V60.368H744.527V62H743.391ZM739.999 60.704C740.457 60.704 740.847 60.6027 741.167 60.4C741.487 60.1973 741.647 59.8987 741.647 59.504V58.4H740.335C739.268 58.4 738.735 58.7413 738.735 59.424V59.696C738.735 60.0373 738.841 60.2933 739.055 60.464C739.279 60.624 739.593 60.704 739.999 60.704ZM746.184 62V53.648H748.232V55.04H748.312C748.483 54.592 748.749 54.2187 749.112 53.92C749.485 53.6107 749.997 53.456 750.648 53.456C751.512 53.456 752.173 53.7387 752.632 54.304C753.091 54.8693 753.32 55.6747 753.32 56.72V62H751.272V56.928C751.272 56.3307 751.165 55.8827 750.952 55.584C750.739 55.2853 750.387 55.136 749.896 55.136C749.683 55.136 749.475 55.168 749.272 55.232C749.08 55.2853 748.904 55.3707 748.744 55.488C748.595 55.5947 748.472 55.7333 748.376 55.904C748.28 56.064 748.232 56.256 748.232 56.48V62H746.184ZM758.886 62.192C758.268 62.192 757.718 62.0907 757.238 61.888C756.758 61.6853 756.353 61.392 756.022 61.008C755.702 60.624 755.457 60.1653 755.286 59.632C755.116 59.088 755.03 58.48 755.03 57.808C755.03 57.136 755.116 56.5333 755.286 56C755.457 55.4667 755.702 55.0133 756.022 54.64C756.353 54.256 756.758 53.9627 757.238 53.76C757.718 53.5573 758.268 53.456 758.886 53.456C759.729 53.456 760.422 53.6427 760.966 54.016C761.521 54.3893 761.921 54.9067 762.166 55.568L760.486 56.32C760.39 55.968 760.209 55.68 759.942 55.456C759.686 55.2213 759.334 55.104 758.886 55.104C758.31 55.104 757.878 55.2853 757.59 55.648C757.313 56.0107 757.174 56.4853 757.174 57.072V58.592C757.174 59.1787 757.313 59.6533 757.59 60.016C757.878 60.368 758.31 60.544 758.886 60.544C759.377 60.544 759.756 60.4213 760.022 60.176C760.289 59.92 760.497 59.6053 760.646 59.232L762.214 59.984C761.937 60.72 761.516 61.2747 760.95 61.648C760.385 62.0107 759.697 62.192 758.886 62.192ZM764.817 52.432C764.391 52.432 764.081 52.336 763.889 52.144C763.708 51.952 763.617 51.7067 763.617 51.408V51.088C763.617 50.7893 763.708 50.544 763.889 50.352C764.081 50.16 764.391 50.064 764.817 50.064C765.233 50.064 765.537 50.16 765.729 50.352C765.921 50.544 766.017 50.7893 766.017 51.088V51.408C766.017 51.7067 765.921 51.952 765.729 52.144C765.537 52.336 765.233 52.432 764.817 52.432ZM763.793 53.648H765.841V62H763.793V53.648ZM774.359 62C773.911 62 773.554 61.872 773.287 61.616C773.031 61.3493 772.871 60.9973 772.807 60.56H772.711C772.573 61.104 772.29 61.5147 771.863 61.792C771.437 62.0587 770.909 62.192 770.279 62.192C769.426 62.192 768.77 61.968 768.311 61.52C767.853 61.072 767.623 60.4747 767.623 59.728C767.623 58.864 767.933 58.224 768.551 57.808C769.17 57.3813 770.05 57.168 771.191 57.168H772.615V56.56C772.615 56.0907 772.493 55.728 772.247 55.472C772.002 55.216 771.607 55.088 771.063 55.088C770.583 55.088 770.194 55.1947 769.895 55.408C769.607 55.6107 769.362 55.856 769.159 56.144L767.943 55.056C768.253 54.576 768.663 54.192 769.175 53.904C769.687 53.6053 770.365 53.456 771.207 53.456C772.338 53.456 773.197 53.712 773.783 54.224C774.37 54.736 774.663 55.472 774.663 56.432V60.368H775.495V62H774.359ZM770.967 60.704C771.426 60.704 771.815 60.6027 772.135 60.4C772.455 60.1973 772.615 59.8987 772.615 59.504V58.4H771.303C770.237 58.4 769.703 58.7413 769.703 59.424V59.696C769.703 60.0373 769.81 60.2933 770.023 60.464C770.247 60.624 770.562 60.704 770.967 60.704ZM779.201 62C778.497 62 777.979 61.824 777.649 61.472C777.318 61.12 777.153 60.624 777.153 59.984V50.16H779.201V60.368H780.305V62H779.201ZM786.053 55.264H784.821V53.648H786.053V52.448C786.053 51.712 786.245 51.1467 786.629 50.752C787.024 50.3573 787.6 50.16 788.357 50.16H789.813V51.792H788.101V53.648H789.813V55.264H788.101V62H786.053V55.264ZM791.231 62V53.648H793.279V55.376H793.359C793.412 55.152 793.492 54.9387 793.599 54.736C793.716 54.5227 793.866 54.336 794.047 54.176C794.228 54.016 794.442 53.888 794.687 53.792C794.943 53.696 795.236 53.648 795.567 53.648H796.015V55.584H795.375C794.682 55.584 794.159 55.6853 793.807 55.888C793.455 56.0907 793.279 56.4213 793.279 56.88V62H791.231ZM800.81 62.192C800.191 62.192 799.637 62.0907 799.146 61.888C798.666 61.6747 798.255 61.3813 797.914 61.008C797.583 60.624 797.327 60.1653 797.146 59.632C796.965 59.088 796.874 58.48 796.874 57.808C796.874 57.1467 796.959 56.5493 797.13 56.016C797.311 55.4827 797.567 55.0293 797.898 54.656C798.229 54.272 798.634 53.9787 799.114 53.776C799.594 53.5627 800.138 53.456 800.746 53.456C801.397 53.456 801.962 53.568 802.442 53.792C802.922 54.016 803.317 54.32 803.626 54.704C803.935 55.088 804.165 55.536 804.314 56.048C804.474 56.5493 804.554 57.088 804.554 57.664V58.336H799.002V58.544C799.002 59.152 799.173 59.6427 799.514 60.016C799.855 60.3787 800.362 60.56 801.034 60.56C801.546 60.56 801.962 60.4533 802.282 60.24C802.613 60.0267 802.906 59.7547 803.162 59.424L804.266 60.656C803.925 61.136 803.455 61.5147 802.858 61.792C802.271 62.0587 801.589 62.192 800.81 62.192ZM800.778 54.992C800.234 54.992 799.802 55.1733 799.482 55.536C799.162 55.8987 799.002 56.368 799.002 56.944V57.072H802.426V56.928C802.426 56.352 802.282 55.888 801.994 55.536C801.717 55.1733 801.311 54.992 800.778 54.992ZM809.732 62.192C809.113 62.192 808.559 62.0907 808.068 61.888C807.588 61.6747 807.177 61.3813 806.836 61.008C806.505 60.624 806.249 60.1653 806.068 59.632C805.887 59.088 805.796 58.48 805.796 57.808C805.796 57.1467 805.881 56.5493 806.052 56.016C806.233 55.4827 806.489 55.0293 806.82 54.656C807.151 54.272 807.556 53.9787 808.036 53.776C808.516 53.5627 809.06 53.456 809.668 53.456C810.319 53.456 810.884 53.568 811.364 53.792C811.844 54.016 812.239 54.32 812.548 54.704C812.857 55.088 813.087 55.536 813.236 56.048C813.396 56.5493 813.476 57.088 813.476 57.664V58.336H807.924V58.544C807.924 59.152 808.095 59.6427 808.436 60.016C808.777 60.3787 809.284 60.56 809.956 60.56C810.468 60.56 810.884 60.4533 811.204 60.24C811.535 60.0267 811.828 59.7547 812.084 59.424L813.188 60.656C812.847 61.136 812.377 61.5147 811.78 61.792C811.193 62.0587 810.511 62.192 809.732 62.192ZM809.7 54.992C809.156 54.992 808.724 55.1733 808.404 55.536C808.084 55.8987 807.924 56.368 807.924 56.944V57.072H811.348V56.928C811.348 56.352 811.204 55.888 810.916 55.536C810.639 55.1733 810.233 54.992 809.7 54.992ZM820.462 60.608H820.382C820.232 61.088 819.95 61.472 819.534 61.76C819.118 62.048 818.632 62.192 818.078 62.192C817.022 62.192 816.211 61.8133 815.646 61.056C815.091 60.2987 814.814 59.216 814.814 57.808C814.814 56.4107 815.091 55.3387 815.646 54.592C816.211 53.8347 817.022 53.456 818.078 53.456C818.632 53.456 819.118 53.6 819.534 53.888C819.95 54.1653 820.232 54.544 820.382 55.024H820.462V50.16H822.51V62H820.462V60.608ZM818.734 60.496C819.224 60.496 819.635 60.3787 819.966 60.144C820.296 59.9093 820.462 59.5733 820.462 59.136V56.48C820.462 56.0747 820.296 55.7493 819.966 55.504C819.635 55.2587 819.224 55.136 818.734 55.136C818.2 55.136 817.768 55.3173 817.438 55.68C817.118 56.032 816.958 56.5067 816.958 57.104V58.544C816.958 59.1413 817.118 59.616 817.438 59.968C817.768 60.32 818.2 60.496 818.734 60.496ZM828.184 62.192C827.586 62.192 827.048 62.0907 826.568 61.888C826.098 61.6853 825.693 61.392 825.352 61.008C825.021 60.624 824.765 60.1653 824.584 59.632C824.402 59.088 824.312 58.48 824.312 57.808C824.312 57.136 824.402 56.5333 824.584 56C824.765 55.4667 825.021 55.0133 825.352 54.64C825.693 54.256 826.098 53.9627 826.568 53.76C827.048 53.5573 827.586 53.456 828.184 53.456C828.781 53.456 829.32 53.5573 829.8 53.76C830.28 53.9627 830.685 54.256 831.016 54.64C831.357 55.0133 831.618 55.4667 831.8 56C831.981 56.5333 832.072 57.136 832.072 57.808C832.072 58.48 831.981 59.088 831.8 59.632C831.618 60.1653 831.357 60.624 831.016 61.008C830.685 61.392 830.28 61.6853 829.8 61.888C829.32 62.0907 828.781 62.192 828.184 62.192ZM828.184 60.544C828.728 60.544 829.154 60.3787 829.464 60.048C829.773 59.7173 829.928 59.232 829.928 58.592V57.04C829.928 56.4107 829.773 55.9307 829.464 55.6C829.154 55.2693 828.728 55.104 828.184 55.104C827.65 55.104 827.229 55.2693 826.92 55.6C826.61 55.9307 826.456 56.4107 826.456 57.04V58.592C826.456 59.232 826.61 59.7173 826.92 60.048C827.229 60.3787 827.65 60.544 828.184 60.544ZM833.887 62V53.648H835.935V55.04H836.015C836.175 54.6027 836.431 54.2293 836.783 53.92C837.135 53.6107 837.626 53.456 838.255 53.456C838.831 53.456 839.327 53.5947 839.743 53.872C840.159 54.1493 840.468 54.5707 840.671 55.136H840.703C840.852 54.6667 841.146 54.272 841.583 53.952C842.031 53.6213 842.591 53.456 843.263 53.456C844.084 53.456 844.714 53.7387 845.151 54.304C845.599 54.8693 845.823 55.6747 845.823 56.72V62H843.775V56.928C843.775 55.7333 843.327 55.136 842.431 55.136C842.228 55.136 842.031 55.168 841.839 55.232C841.658 55.2853 841.492 55.3707 841.343 55.488C841.204 55.5947 841.092 55.7333 841.007 55.904C840.922 56.064 840.879 56.256 840.879 56.48V62H838.831V56.928C838.831 55.7333 838.383 55.136 837.487 55.136C837.295 55.136 837.103 55.168 836.911 55.232C836.73 55.2853 836.564 55.3707 836.415 55.488C836.276 55.5947 836.159 55.7333 836.063 55.904C835.978 56.064 835.935 56.256 835.935 56.48V62H833.887Z" fill="#0F62FE"/>
<rect x="705.5" y="42.5" width="149" height="27" rx="13.5" stroke="black" shape-rendering="crispEdges"/>
</g>
</g>
<defs>
<filter id="filter0_d_12560_553570" x="701" y="42" width="154" height="33" filterUnits="userSpaceOnUse" color-interpolation-filters="sRGB">
<feFlood flood-opacity="0" result="BackgroundImageFix"/>
<feColorMatrix in="SourceAlpha" type="matrix" values="0 0 0 0 0 0 0 0 0 0 0 0 0 0 0 0 0 0 127 0" result="hardAlpha"/>
<feOffset dx="-4" dy="5"/>
<feComposite in2="hardAlpha" operator="out"/>
<feColorMatrix type="matrix" values="0 0 0 0 0 0 0 0 0 0 0 0 0 0 0 0 0 0 0.24 0"/>
<feBlend mode="normal" in2="BackgroundImageFix" result="effect1_dropShadow_12560_553570"/>
<feBlend mode="normal" in="SourceGraphic" in2="effect1_dropShadow_12560_553570" result="shape"/>
</filter>
<clipPath id="clip0_12560_553570">
<rect width="992" height="156" fill="white"/>
</clipPath>
</defs>
</svg>
