<svg width="480" height="230" viewBox="0 0 480 230" fill="none" xmlns="http://www.w3.org/2000/svg">
<g clip-path="url(#clip0_12511_276135)">
<rect x="1" y="197" width="13" height="34" fill="#8D8D8D" fill-opacity="0.5" stroke="black"/>
<rect x="14" y="190" width="13" height="41" fill="white" stroke="black"/>
<rect x="49" y="152" width="13" height="79" fill="#8D8D8D" fill-opacity="0.5" stroke="black"/>
<rect x="62" y="164" width="13" height="67" fill="white" stroke="black"/>
<rect x="97" y="139" width="13" height="92" fill="#8D8D8D" fill-opacity="0.5" stroke="black"/>
<rect x="110" y="158" width="13" height="73" fill="white" stroke="black"/>
<rect x="145" y="121" width="13" height="110" fill="#8D8D8D" fill-opacity="0.5" stroke="black"/>
<rect x="158" y="142" width="13" height="89" fill="white" stroke="black"/>
<rect x="193" y="114" width="13" height="117" fill="#8D8D8D" fill-opacity="0.5" stroke="black"/>
<rect x="206" y="138" width="13" height="93" fill="white" stroke="black"/>
<rect x="241" y="32" width="13" height="199" fill="#00D66F" stroke="black"/>
<path d="M257 34H260.5M264 34H260.5M260.5 34V104M260.5 104H257M260.5 104H264" stroke="#198038"/>
<rect x="254" y="106" width="13" height="125" fill="white" stroke="black"/>
<rect x="289" y="44" width="13" height="187" fill="#00D66F" stroke="black"/>
<rect x="302" y="147" width="13" height="84" fill="white" stroke="black"/>
<rect x="337" y="23" width="13" height="208" fill="#00D66F" stroke="black"/>
<rect x="350" y="112" width="13" height="119" fill="white" stroke="black"/>
<rect x="385" y="22" width="12" height="209" fill="#00D66F" stroke="black"/>
<rect x="397" y="120" width="12" height="111" fill="white" stroke="black"/>
<rect x="431" y="5" width="12.8919" height="226" fill="#00D66F" stroke="black"/>
<rect x="443.892" y="73" width="13" height="158" fill="white" stroke="black"/>
<path opacity="0.2" d="M1 106L477 106" stroke="black" stroke-dasharray="6 3"/>
<path d="M10.1281 106L1.5 112.04V99.9603L10.1281 106Z" fill="#FBA3FF" stroke="black"/>
<path opacity="0.2" d="M1 32L477 32" stroke="black" stroke-dasharray="6 3"/>
<path d="M10.1281 32L1.5 38.0397V25.9603L10.1281 32Z" fill="#FBA3FF" stroke="black"/>
<g filter="url(#filter0_d_12511_276135)">
<rect x="232" y="55" width="56" height="28" rx="14" fill="white" shape-rendering="crispEdges"/>
<path d="M248.432 73.272H248.368C248.272 73.816 247.968 74.2747 247.456 74.648C246.955 75.0107 246.283 75.192 245.44 75.192C244.779 75.192 244.165 75.0693 243.6 74.824C243.045 74.5787 242.56 74.216 242.144 73.736C241.739 73.2453 241.419 72.6427 241.184 71.928C240.949 71.2133 240.832 70.3867 240.832 69.448C240.832 68.5093 240.949 67.6827 241.184 66.968C241.429 66.2427 241.771 65.6347 242.208 65.144C242.645 64.6533 243.168 64.28 243.776 64.024C244.384 63.768 245.061 63.64 245.808 63.64C246.811 63.64 247.664 63.8587 248.368 64.296C249.072 64.7333 249.627 65.3627 250.032 66.184L248.32 67.192C248.117 66.712 247.813 66.312 247.408 65.992C247.013 65.672 246.48 65.512 245.808 65.512C244.976 65.512 244.309 65.768 243.808 66.28C243.317 66.7813 243.072 67.528 243.072 68.52V70.312C243.072 71.2933 243.323 72.04 243.824 72.552C244.325 73.064 244.997 73.32 245.84 73.32C246.171 73.32 246.48 73.2827 246.768 73.208C247.056 73.1227 247.307 73 247.52 72.84C247.733 72.68 247.904 72.4827 248.032 72.248C248.16 72.0133 248.224 71.736 248.224 71.416V70.696H246.032V68.92H250.256V75H248.432V73.272ZM255.887 75.192C255.289 75.192 254.751 75.0907 254.271 74.888C253.801 74.6853 253.396 74.392 253.055 74.008C252.724 73.624 252.468 73.1653 252.287 72.632C252.105 72.088 252.015 71.48 252.015 70.808C252.015 70.136 252.105 69.5333 252.287 69C252.468 68.4667 252.724 68.0133 253.055 67.64C253.396 67.256 253.801 66.9627 254.271 66.76C254.751 66.5573 255.289 66.456 255.887 66.456C256.484 66.456 257.023 66.5573 257.503 66.76C257.983 66.9627 258.388 67.256 258.719 67.64C259.06 68.0133 259.321 68.4667 259.503 69C259.684 69.5333 259.775 70.136 259.775 70.808C259.775 71.48 259.684 72.088 259.503 72.632C259.321 73.1653 259.06 73.624 258.719 74.008C258.388 74.392 257.983 74.6853 257.503 74.888C257.023 75.0907 256.484 75.192 255.887 75.192ZM255.887 73.544C256.431 73.544 256.857 73.3787 257.167 73.048C257.476 72.7173 257.631 72.232 257.631 71.592V70.04C257.631 69.4107 257.476 68.9307 257.167 68.6C256.857 68.2693 256.431 68.104 255.887 68.104C255.353 68.104 254.932 68.2693 254.623 68.6C254.313 68.9307 254.159 69.4107 254.159 70.04V71.592C254.159 72.232 254.313 72.7173 254.623 73.048C254.932 73.3787 255.353 73.544 255.887 73.544ZM264.902 75.192C264.305 75.192 263.766 75.0907 263.286 74.888C262.817 74.6853 262.412 74.392 262.07 74.008C261.74 73.624 261.484 73.1653 261.302 72.632C261.121 72.088 261.03 71.48 261.03 70.808C261.03 70.136 261.121 69.5333 261.302 69C261.484 68.4667 261.74 68.0133 262.07 67.64C262.412 67.256 262.817 66.9627 263.286 66.76C263.766 66.5573 264.305 66.456 264.902 66.456C265.5 66.456 266.038 66.5573 266.518 66.76C266.998 66.9627 267.404 67.256 267.734 67.64C268.076 68.0133 268.337 68.4667 268.518 69C268.7 69.5333 268.79 70.136 268.79 70.808C268.79 71.48 268.7 72.088 268.518 72.632C268.337 73.1653 268.076 73.624 267.734 74.008C267.404 74.392 266.998 74.6853 266.518 74.888C266.038 75.0907 265.5 75.192 264.902 75.192ZM264.902 73.544C265.446 73.544 265.873 73.3787 266.182 73.048C266.492 72.7173 266.646 72.232 266.646 71.592V70.04C266.646 69.4107 266.492 68.9307 266.182 68.6C265.873 68.2693 265.446 68.104 264.902 68.104C264.369 68.104 263.948 68.2693 263.638 68.6C263.329 68.9307 263.174 69.4107 263.174 70.04V71.592C263.174 72.232 263.329 72.7173 263.638 73.048C263.948 73.3787 264.369 73.544 264.902 73.544ZM275.79 73.608H275.71C275.561 74.088 275.278 74.472 274.862 74.76C274.446 75.048 273.961 75.192 273.406 75.192C272.35 75.192 271.539 74.8133 270.974 74.056C270.419 73.2987 270.142 72.216 270.142 70.808C270.142 69.4107 270.419 68.3387 270.974 67.592C271.539 66.8347 272.35 66.456 273.406 66.456C273.961 66.456 274.446 66.6 274.862 66.888C275.278 67.1653 275.561 67.544 275.71 68.024H275.79V63.16H277.838V75H275.79V73.608ZM274.062 73.496C274.553 73.496 274.963 73.3787 275.294 73.144C275.625 72.9093 275.79 72.5733 275.79 72.136V69.48C275.79 69.0747 275.625 68.7493 275.294 68.504C274.963 68.2587 274.553 68.136 274.062 68.136C273.529 68.136 273.097 68.3173 272.766 68.68C272.446 69.032 272.286 69.5067 272.286 70.104V71.544C272.286 72.1413 272.446 72.616 272.766 72.968C273.097 73.32 273.529 73.496 274.062 73.496Z" fill="#198038"/>
<rect x="232.5" y="55.5" width="55" height="27" rx="13.5" stroke="black" shape-rendering="crispEdges"/>
</g>
</g>
<defs>
<filter id="filter0_d_12511_276135" x="228" y="55" width="60" height="33" filterUnits="userSpaceOnUse" color-interpolation-filters="sRGB">
<feFlood flood-opacity="0" result="BackgroundImageFix"/>
<feColorMatrix in="SourceAlpha" type="matrix" values="0 0 0 0 0 0 0 0 0 0 0 0 0 0 0 0 0 0 127 0" result="hardAlpha"/>
<feOffset dx="-4" dy="5"/>
<feComposite in2="hardAlpha" operator="out"/>
<feColorMatrix type="matrix" values="0 0 0 0 0 0 0 0 0 0 0 0 0 0 0 0 0 0 0.24 0"/>
<feBlend mode="normal" in2="BackgroundImageFix" result="effect1_dropShadow_12511_276135"/>
<feBlend mode="normal" in="SourceGraphic" in2="effect1_dropShadow_12511_276135" result="shape"/>
</filter>
<clipPath id="clip0_12511_276135">
<rect width="480" height="230" fill="white"/>
</clipPath>
</defs>
</svg>
