<svg width="480" height="229" viewBox="0 0 480 229" fill="none" xmlns="http://www.w3.org/2000/svg">
<rect x="1" y="1" width="77" height="227" fill="#B283FF" stroke="black"/>
<rect x="77.6638" y="1" width="74.6725" height="113.5" fill="#FBA3FF" stroke="black"/>
<rect x="152.336" y="1" width="76.6638" height="76.6638" fill="#8EB5FF" stroke="black"/>
<path d="M152.336 5.97803H229V77.6636H152.336V5.97803Z" fill="white"/>
<path d="M152.336 5.97803V5.47803H151.836V5.97803H152.336ZM229 5.97803H229.5V5.47803H229V5.97803ZM229 77.6636V78.1636H229.5V77.6636H229ZM152.336 77.6636H151.836V78.1636H152.336V77.6636ZM152.336 6.47803H229V5.47803H152.336V6.47803ZM228.5 5.97803V77.6636H229.5V5.97803H228.5ZM229 77.1636H152.336V78.1636H229V77.1636ZM152.836 77.6636V5.97803H151.836V77.6636H152.836Z" fill="black"/>
<path d="M229 1H305.664V65.7162H229V1Z" fill="#A5F59C" style="mix-blend-mode:multiply"/>
<path d="M229 1V0.5H228.5V1H229ZM305.664 1H306.164V0.5H305.664V1ZM305.664 65.7162V66.2162H306.164V65.7162H305.664ZM229 65.7162H228.5V66.2162H229V65.7162ZM229 1.5H305.664V0.5H229V1.5ZM305.164 1V65.7162H306.164V1H305.164ZM305.664 65.2162H229V66.2162H305.664V65.2162ZM229.5 65.7162V1H228.5V65.7162H229.5Z" fill="black"/>
<path d="M288.738 154.328H305.664V65.7163H229V154.328H245.428" stroke="black" stroke-dasharray="6 5"/>
<rect x="380.336" y="1" width="76.6638" height="76.6638" rx="38.3319" fill="#94F0F0" style="mix-blend-mode:multiply"/>
<rect x="380.336" y="1" width="76.6638" height="76.6638" rx="38.3319" stroke="black"/>
<rect width="42.8122" height="42.8122" transform="translate(169.262 17.9258)" fill="white" style="mix-blend-mode:multiply"/>
<path d="M201.371 43.3455C201.371 44.084 200.772 44.6834 200.033 44.6834C199.295 44.6834 198.695 44.084 198.695 43.3455C198.695 42.607 199.295 42.0076 200.033 42.0076C200.772 42.0076 201.371 42.607 201.371 43.3455ZM201.371 50.0349C201.371 50.7734 200.772 51.3728 200.033 51.3728C199.295 51.3728 198.695 50.7734 198.695 50.0349C198.695 49.2964 199.295 48.697 200.033 48.697C200.772 48.697 201.371 49.2964 201.371 50.0349ZM203.378 45.3523C202.639 45.3523 202.04 45.9517 202.04 46.6902C202.04 47.4287 202.639 48.0281 203.378 48.0281C204.116 48.0281 204.716 47.4287 204.716 46.6902C204.716 45.9517 204.116 45.3523 203.378 45.3523ZM196.688 45.3523C195.95 45.3523 195.351 45.9517 195.351 46.6902C195.351 47.4287 195.95 48.0281 196.688 48.0281C197.427 48.0281 198.026 47.4287 198.026 46.6902C198.026 45.9517 197.427 45.3523 196.688 45.3523ZM185.316 46.2086H181.784V42.6766C181.784 42.4103 181.569 42.1949 181.303 42.1949C181.037 42.1949 180.821 42.4103 180.821 42.6766V46.2086H177.289C177.023 46.2086 176.808 46.424 176.808 46.6902C176.808 46.9564 177.023 47.1718 177.289 47.1718H180.821V50.7039C180.821 50.9701 181.037 51.1855 181.303 51.1855C181.569 51.1855 181.784 50.9701 181.784 50.7039V47.1718H185.316C185.583 47.1718 185.798 46.9564 185.798 46.6902C185.798 46.424 185.583 46.2086 185.316 46.2086ZM210.909 52.3615L206.677 39.6703C206.248 38.3793 205.044 37.511 203.682 37.511H191.15V30.4483H196.02C199.236 30.4483 201.853 27.8314 201.853 24.6151C201.853 21.3989 199.236 18.782 196.02 18.782C192.803 18.782 190.186 21.3989 190.186 24.6151V29.485H178.627V30.4483H190.186V37.5123H177.653C176.291 37.5123 175.088 38.3793 174.658 39.6717L170.429 52.3628C169.584 54.8968 170.471 57.6113 172.585 58.9639C173.522 59.5646 174.608 59.8831 175.727 59.8831H176.156C177.708 59.8831 179.166 59.281 180.257 58.1987L184.17 54.5262H197.166L201.026 58.1746C202.112 59.2609 203.617 59.8831 205.155 59.8831C205.156 59.8831 205.159 59.8831 205.16 59.8831H205.611C206.729 59.8831 207.814 59.566 208.752 58.9653C210.865 57.6113 211.753 54.8968 210.909 52.3615ZM191.15 24.6151C191.15 21.93 193.334 19.7453 196.02 19.7453C198.705 19.7453 200.889 21.93 200.889 24.6151C200.889 27.3003 198.705 29.485 196.02 29.485H191.15V24.6151ZM208.23 58.1518C208.23 58.1532 208.23 58.1532 208.23 58.1518C207.45 58.6535 206.543 58.9171 205.609 58.9171H205.159C205.157 58.9171 205.155 58.9171 205.153 58.9171C203.869 58.9171 202.614 58.3967 201.696 57.4816L197.688 53.6927C197.6 53.6084 197.481 53.5602 197.357 53.5602H183.979C183.857 53.5602 183.738 53.6071 183.648 53.6913L179.585 57.5043C178.667 58.4167 177.45 58.9184 176.155 58.9184H175.727C174.793 58.9184 173.887 58.6549 173.106 58.1545C171.39 57.0561 170.649 54.7496 171.342 52.6692L175.573 39.9754C175.872 39.0777 176.709 38.4743 177.654 38.4743H203.683C204.63 38.4743 205.466 39.0777 205.765 39.9754L209.996 52.6679C210.688 54.7483 209.946 57.0548 208.23 58.1518Z" fill="#161616"/>
<rect width="42.8122" height="42.8122" transform="translate(17.9258 17.9258)" fill="white" style="mix-blend-mode:multiply"/>
<path d="M59.4002 59.8818H19.2638V58.9185H21.4579V43.3455H22.4212V58.9185H28.1473V43.3455C28.1473 43.0793 28.3627 42.8639 28.6289 42.8639H50.0351C50.3013 42.8639 50.5167 43.0793 50.5167 43.3455V58.9185H56.2415V43.3455H57.2061V58.9185H59.4002V59.8818ZM29.1106 58.9185H49.5534V54.5302L29.1106 54.5342V58.9185ZM29.1106 49.1827V53.5696L49.5534 53.5669V49.1787L29.1106 49.1827ZM29.1106 43.8272V48.2181L49.5534 48.2154V43.8272H29.1106ZM28.6289 39.8175V38.8543L50.0351 38.8502V39.8135L28.6289 39.8175ZM59.0591 39.6717L39.332 19.9446L19.6036 39.6717L18.9226 38.9907L38.9908 18.9225C39.1795 18.7338 39.4832 18.7338 39.6718 18.9225L56.2428 35.4935V29.9667H57.2074V36.4568L59.7427 38.9921L59.0591 39.6717Z" fill="#161616"/>
<rect width="42.8122" height="42.8122" transform="translate(397.262 17.9258)" fill="white" style="mix-blend-mode:multiply"/>
<path d="M418.668 41.1514C423.36 41.1514 427.177 37.3331 427.177 32.6425V22.979L418.668 18.7258L410.159 22.9803V32.6425C410.159 37.3344 413.976 41.1514 418.668 41.1514ZM411.123 23.5757L418.668 19.8015L426.214 23.5743V26.511L418.884 22.8465L418.453 23.7081L426.214 27.588V30.5246L418.884 26.8602L418.453 27.7217L426.214 31.6016V32.6425C426.214 33.2579 426.131 33.8546 425.992 34.4272L418.885 30.8738L418.454 31.7354L425.701 35.3584C425.379 36.1892 424.916 36.9478 424.338 37.6074L418.885 34.8874L418.455 35.7504L423.618 38.3271C422.29 39.4817 420.563 40.1881 418.668 40.1881C414.507 40.1881 411.123 36.8033 411.123 32.6425V23.5757ZM435.848 45.5785L427.684 53.7422C427.191 54.2359 426.538 54.5543 425.845 54.6413L416.216 55.844L413.656 58.4034L412.976 57.7211L415.768 54.9289L425.724 53.6834C426.204 53.6245 426.658 53.4024 427.001 53.0586L435.164 44.8948C435.714 44.3463 435.714 43.4512 435.164 42.9C434.614 42.3502 433.718 42.3515 433.171 42.9014L424.683 49.7995L424.678 49.7928C424.135 50.237 423.45 50.5152 422.695 50.5152H416.004V49.5533H422.695C423.903 49.5533 424.887 48.5713 424.887 47.3619C424.887 46.8883 424.503 46.5029 424.03 46.5029H413.662C410.165 46.5029 407.295 49.2362 407.126 52.7254L407.12 52.9114L401.616 58.4021L400.935 57.7197L406.176 52.49C406.461 48.5767 409.714 45.5383 413.662 45.5383H424.03C425.034 45.5383 425.85 46.3544 425.85 47.3578C425.85 47.4528 425.83 47.5425 425.822 47.6348L432.526 42.1869C433.413 41.2959 434.921 41.2946 435.844 42.219C436.772 43.1475 436.771 44.654 435.848 45.5785Z" fill="#161616"/>
<rect width="42.8122" height="42.8122" transform="translate(93.594 17.9258)" fill="white" style="mix-blend-mode:multiply"/>
<path d="M118.159 58.3659C118.076 58.3659 117.994 58.3445 117.918 58.3004C117.687 58.1666 117.609 57.8736 117.741 57.6435L119.079 55.3262C119.213 55.0935 119.51 55.0172 119.736 55.1496C119.968 55.2834 120.045 55.5764 119.913 55.8065L118.575 58.1238C118.487 58.2789 118.325 58.3659 118.159 58.3659ZM112.138 58.3659C112.057 58.3659 111.974 58.3445 111.898 58.3004C111.667 58.1666 111.588 57.8736 111.721 57.6435L113.059 55.3262C113.193 55.0948 113.486 55.0159 113.717 55.1496C113.947 55.2834 114.026 55.5764 113.894 55.8065L112.556 58.1238C112.466 58.2789 112.304 58.3659 112.138 58.3659ZM106.787 58.3659C106.705 58.3659 106.622 58.3445 106.546 58.3004C106.316 58.1666 106.237 57.8736 106.369 57.6435L107.707 55.3262C107.84 55.0948 108.134 55.0159 108.366 55.1496C108.596 55.2834 108.675 55.5764 108.542 55.8065L107.204 58.1238C107.115 58.2789 106.953 58.3659 106.787 58.3659ZM100.766 58.3659C100.685 58.3659 100.602 58.3445 100.526 58.3004C100.295 58.1666 100.216 57.8736 100.349 57.6435L101.687 55.3262C101.821 55.0948 102.112 55.0159 102.345 55.1496C102.575 55.2834 102.654 55.5764 102.522 55.8065L101.184 58.1238C101.094 58.2789 100.932 58.3659 100.766 58.3659ZM120.835 53.6833C120.752 53.6833 120.67 53.6619 120.594 53.6178C120.362 53.484 120.285 53.191 120.417 52.9609L121.755 50.6437C121.889 50.4109 122.184 50.3346 122.412 50.4671C122.643 50.6008 122.721 50.8938 122.589 51.124L121.251 53.4412C121.162 53.5964 121 53.6833 120.835 53.6833ZM114.814 53.6833C114.732 53.6833 114.65 53.6619 114.573 53.6178C114.343 53.484 114.264 53.191 114.397 52.9609L115.735 50.6437C115.867 50.4122 116.163 50.3333 116.393 50.4671C116.624 50.6008 116.702 50.8938 116.569 51.124L115.232 53.4412C115.142 53.5964 114.98 53.6833 114.814 53.6833ZM109.463 53.6833C109.381 53.6833 109.298 53.6619 109.222 53.6178C108.992 53.484 108.913 53.191 109.045 52.9609L110.383 50.6437C110.517 50.4122 110.808 50.3333 111.041 50.4671C111.271 50.6008 111.35 50.8938 111.218 51.124L109.88 53.4412C109.79 53.5964 109.628 53.6833 109.463 53.6833ZM103.442 53.6833C103.36 53.6833 103.278 53.6619 103.201 53.6178C102.971 53.484 102.892 53.191 103.025 52.9609L104.363 50.6437C104.496 50.4122 104.789 50.3333 105.021 50.4671C105.251 50.6008 105.33 50.8938 105.197 51.124L103.86 53.4412C103.77 53.5964 103.608 53.6833 103.442 53.6833ZM123.51 49.0007C123.427 49.0007 123.346 48.9793 123.27 48.9352C123.038 48.8014 122.96 48.5084 123.093 48.2783L124.431 45.9611C124.565 45.7296 124.86 45.6534 125.088 45.7845C125.319 45.9183 125.397 46.2113 125.264 46.4414L123.926 48.7586C123.838 48.9138 123.676 49.0007 123.51 49.0007ZM117.49 49.0007C117.407 49.0007 117.325 48.9793 117.249 48.9352C117.018 48.8014 116.94 48.5084 117.072 48.2783L118.41 45.9611C118.544 45.7296 118.84 45.6534 119.067 45.7845C119.299 45.9183 119.376 46.2113 119.244 46.4414L117.906 48.7586C117.818 48.9138 117.656 49.0007 117.49 49.0007ZM112.138 49.0007C112.057 49.0007 111.974 48.9793 111.898 48.9352C111.667 48.8014 111.588 48.5084 111.721 48.2783L113.059 45.9611C113.193 45.7296 113.486 45.6507 113.717 45.7845C113.947 45.9183 114.026 46.2113 113.894 46.4414L112.556 48.7586C112.466 48.9138 112.304 49.0007 112.138 49.0007ZM106.118 49.0007C106.036 49.0007 105.953 48.9793 105.877 48.9352C105.647 48.8014 105.568 48.5084 105.7 48.2783L107.038 45.9611C107.172 45.7296 107.464 45.6507 107.697 45.7845C107.927 45.9183 108.006 46.2113 107.873 46.4414L106.535 48.7586C106.446 48.9138 106.284 49.0007 106.118 49.0007ZM101.128 42.4893C97.2557 42.4384 94.4502 39.7934 94.4502 36.1985C94.4502 32.4966 97.4457 29.485 101.128 29.485C102.052 29.485 102.97 29.679 103.817 30.0496C104.682 24.5135 109.517 20.1199 114.902 20.1199C119.292 20.1199 123.374 22.9094 125.189 27.1076C125.991 26.9029 126.941 26.8093 127.612 26.8093C131.988 26.8093 135.551 30.3707 135.551 34.7483C135.551 39.0415 132.067 42.4411 127.618 42.4906H101.128V42.4893ZM101.128 30.4483C97.9769 30.4483 95.4135 33.0278 95.4135 36.1985C95.4135 39.2422 97.819 41.4832 101.134 41.5246H127.612C131.522 41.4832 134.587 38.5064 134.587 34.7469C134.587 30.9005 131.459 27.7712 127.612 27.7712C126.761 27.7712 125.714 27.9251 125.064 28.1458C124.819 28.2315 124.555 28.1044 124.46 27.8649C122.882 23.8084 119.04 21.0818 114.902 21.0818C109.78 21.0818 105.199 25.4553 104.689 30.831C104.673 30.9955 104.577 31.1387 104.432 31.2136C104.288 31.2912 104.114 31.2872 103.971 31.2042C103.104 30.7105 102.12 30.4483 101.128 30.4483Z" fill="#161616"/>
<rect width="42.8122" height="42.8122" transform="translate(245.926 17.9258)" fill="white" style="mix-blend-mode:multiply"/>
<path d="M275.359 59.8816C268.615 59.8816 263.1 54.522 262.846 47.8407H257.967C257.7 47.8407 257.485 47.6253 257.485 47.359V29.9666C257.485 29.7003 257.7 29.4849 257.967 29.4849H264.656C264.785 29.4849 264.906 29.5358 264.996 29.6254C265.087 29.7164 265.138 29.8381 265.138 29.9666V40.1278C265.967 38.9491 267.001 37.9189 268.188 37.0961V19.2622C268.188 18.9959 268.403 18.7805 268.67 18.7805H275.359C275.488 18.7805 275.611 18.8314 275.7 18.921C275.79 19.0133 275.841 19.1364 275.841 19.2635L275.839 34.8458C282.522 35.0987 287.882 40.6148 287.882 47.359C287.882 54.2638 282.264 59.8816 275.359 59.8816ZM275.359 35.7997C273.059 35.7997 270.84 36.474 268.937 37.7517C267.305 38.8327 265.974 40.3284 265.086 42.0797C264.244 43.6972 263.8 45.5221 263.8 47.359C263.8 53.7327 268.985 58.9183 275.359 58.9183C281.733 58.9183 286.918 53.7327 286.918 47.359C286.918 40.9853 281.733 35.7997 275.359 35.7997ZM258.448 46.8774H262.846C262.916 45.0913 263.37 43.3293 264.174 41.7466V30.4482H258.448V46.8774ZM269.151 19.7451L269.15 36.486C269.264 36.4218 269.377 36.3576 269.494 36.2961C270.317 35.8572 271.184 35.5147 272.08 35.2713C272.988 35.0251 273.925 34.8819 274.876 34.8458L274.878 19.7451H269.151ZM275.841 54.0484H274.878V51.8543H271.345V50.891H277.366C278.207 50.891 278.891 50.2074 278.891 49.3658C278.891 48.5243 278.207 47.8407 277.366 47.8407H273.351C271.98 47.8407 270.864 46.7235 270.864 45.3522C270.864 43.9809 271.98 42.8637 273.351 42.8637H274.878V40.6696H275.842V42.8637H279.373V43.8283H273.351C272.511 43.8283 271.827 44.512 271.827 45.3535C271.827 46.1951 272.511 46.8787 273.351 46.8787H277.366C278.737 46.8787 279.854 47.9958 279.854 49.3672C279.854 50.7385 278.737 51.8556 277.366 51.8556H275.841V54.0484ZM253.953 47.8407H247.264C246.997 47.8407 246.782 47.6253 246.782 47.359V37.9938C246.782 37.7276 246.997 37.5122 247.264 37.5122H253.953C254.219 37.5122 254.435 37.7276 254.435 37.9938V47.359C254.435 47.6253 254.219 47.8407 253.953 47.8407ZM247.745 46.8774H253.471V38.4755H247.745V46.8774Z" fill="#161616"/>
<path d="M318.607 38.8339H366.397M366.397 38.8339L351.463 23.8994M366.397 38.8339L351.463 53.7684" stroke="black"/>
<rect width="42.8122" height="42.8122" transform="translate(245.926 132.424)" fill="white" style="mix-blend-mode:multiply"/>
<path d="M274.982 159.659C273.474 159.659 271.966 159.092 270.82 157.956L267.332 154.507L263.847 157.956C261.551 160.226 257.815 160.226 255.52 157.956C254.405 156.855 253.792 155.39 253.792 153.831C253.792 152.271 254.405 150.805 255.52 149.703C257.817 147.432 261.552 147.432 263.848 149.703L267.332 153.152L270.818 149.703C273.113 147.431 276.85 147.431 279.144 149.703C280.258 150.805 280.871 152.271 280.871 153.831C280.87 155.39 280.257 156.854 279.144 157.956C277.997 159.092 276.488 159.659 274.982 159.659ZM268.017 153.83L271.495 157.271C273.417 159.173 276.543 159.173 278.467 157.271C279.396 156.352 279.907 155.13 279.907 153.831C279.908 152.531 279.396 151.308 278.467 150.388C276.543 148.485 273.418 148.485 271.495 150.388L268.017 153.83ZM259.683 148.961C258.42 148.961 257.157 149.436 256.197 150.388C255.267 151.308 254.756 152.531 254.756 153.831C254.756 155.13 255.267 156.353 256.197 157.271C258.119 159.172 261.247 159.175 263.168 157.271L266.648 153.83L263.168 150.388C262.208 149.438 260.946 148.961 259.683 148.961Z" fill="#161616"/>
</svg>
