<svg width="288" height="136" viewBox="0 0 288 136" fill="none" xmlns="http://www.w3.org/2000/svg">
<rect x="2" y="44.2834" width="255" height="56" fill="#161616"/>
<path d="M29 72H203M203 72L188 57M203 72L188 87" stroke="white"/>
<rect x="213" y="40" width="64" height="64" fill="black" fill-opacity="0.24"/>
<rect x="221" y="32" width="64" height="64" fill="#FBA3FF" stroke="black"/>
<g clip-path="url(#clip0_12576_555806)">
<rect width="48" height="48" transform="translate(229 40)" fill="white" style="mix-blend-mode:multiply"/>
<path d="M256.54 65.5C256.54 66.625 255.625 67.54 254.5 67.54H253.54V69.25H252.46V67.54H250V66.46H254.5C255.029 66.46 255.46 66.0295 255.46 65.5C255.46 64.9705 255.029 64.54 254.5 64.54H251.5C250.375 64.54 249.461 63.625 249.461 62.5C249.461 61.375 250.376 60.46 251.5 60.46H252.461V58.75H253.541V60.46H256V61.54H251.5C250.97 61.54 250.54 61.9705 250.54 62.5C250.54 63.0295 250.97 63.46 251.5 63.46H254.5C255.625 63.46 256.54 64.375 256.54 65.5ZM263.857 67.54L263.18 69.1735L265.43 71.4235L260.423 76.4305L258.173 74.1805L256.54 74.857V78.04H249.46V74.857L247.825 74.1805L245.575 76.4305L240.568 71.4235L242.818 69.1735L242.141 67.54H238.96V60.46H242.141L242.818 58.825L240.568 56.575L245.575 51.568L247.825 53.818L249.46 53.1415V49.96H256.54V53.1415L258.173 53.818L260.423 51.568L265.43 56.575L263.18 58.825L263.857 60.46H267.04V67.54H263.857ZM261.907 69.4285L263.137 66.46H265.96V61.54H263.137L261.907 58.5715L263.905 56.575L260.425 53.0965L258.43 55.093L255.46 53.8645V51.04H250.54V53.8645L247.571 55.093L245.575 53.0965L242.096 56.575L244.093 58.5715L242.864 61.54H240.04V66.46H242.864L244.093 69.4285L242.096 71.4235L245.575 74.9035L247.571 72.9055L250.54 74.1355V76.9585H255.46V74.1355L258.428 72.9055L260.423 74.9035L263.903 71.4235L261.907 69.4285ZM253 42.04C259.603 42.04 265.697 44.9125 269.885 49.96H265V51.04H271.54V44.5H270.46V48.967C266.075 43.858 259.795 40.96 253 40.96C240.295 40.96 229.96 51.295 229.96 64H231.04C231.04 51.8905 240.89 42.04 253 42.04ZM274.96 64C274.96 76.108 265.109 85.96 253 85.96C246.397 85.96 240.302 83.0875 236.114 78.0415H241V76.96H234.46V83.5H235.54V79.033C239.924 84.142 246.205 87.04 253 87.04C265.705 87.04 276.04 76.7035 276.04 64H274.96Z" fill="#161616"/>
</g>
<defs>
<clipPath id="clip0_12576_555806">
<rect width="48" height="48" fill="white" transform="translate(229 40)"/>
</clipPath>
</defs>
</svg>
