<svg width="480" height="230" viewBox="0 0 480 230" fill="none" xmlns="http://www.w3.org/2000/svg">
<g clip-path="url(#clip0_12580_287109)">
<rect x="1" y="122" width="13" height="109" fill="#FF968E" stroke="black"/>
<rect x="14" y="125" width="13" height="106" fill="white" stroke="black"/>
<rect x="49" y="38" width="13" height="193" fill="#FF968E" stroke="black"/>
<rect x="62" y="59" width="13" height="172" fill="white" stroke="black"/>
<rect x="97" y="53" width="13" height="178" fill="#FF968E" stroke="black"/>
<rect x="110" y="73" width="13" height="158" fill="white" stroke="black"/>
<rect x="145" y="59" width="13" height="172" fill="#F1C21B" stroke="black"/>
<rect x="158" y="59" width="13" height="172" fill="white" stroke="black"/>
<rect x="193" y="5" width="13" height="226" fill="#FF968E" stroke="black"/>
<rect x="206" y="29" width="13" height="202" fill="white" stroke="black"/>
<rect x="241" y="74" width="13" height="157" fill="#FA4D56" stroke="black"/>
<path d="M257 76H260.5M264 76H260.5M260.5 76V104M260.5 104H257M260.5 104H264" stroke="#DA1E28"/>
<rect x="254" y="106" width="13" height="125" fill="white" stroke="black"/>
<rect x="289" y="42" width="13" height="189" fill="#FF968E" stroke="black"/>
<rect x="302" y="67" width="13" height="164" fill="white" stroke="black"/>
<rect x="337" y="112" width="13" height="119" fill="#F1C21B" stroke="black"/>
<rect x="350" y="112" width="13" height="119" fill="white" stroke="black"/>
<rect x="385" y="110" width="12" height="121" fill="#FF968E" stroke="black"/>
<rect x="397" y="120" width="12" height="111" fill="white" stroke="black"/>
<rect x="431" y="5" width="12.8919" height="226" fill="#FF968E" stroke="black"/>
<rect x="443.892" y="10" width="13" height="221" fill="white" stroke="black"/>
<path opacity="0.2" d="M1 106L477 106" stroke="black" stroke-dasharray="6 3"/>
<path d="M10.1281 106L1.5 112.04V99.9603L10.1281 106Z" fill="#FBA3FF" stroke="black"/>
<path opacity="0.2" d="M1 74L477 74" stroke="black" stroke-dasharray="6 3"/>
<path d="M10.1281 74L1.5 80.0397V67.9603L10.1281 74Z" fill="#FBA3FF" stroke="black"/>
<g filter="url(#filter0_d_12580_287109)">
<rect x="268" y="76" width="46" height="28" rx="14" fill="white" shape-rendering="crispEdges"/>
<path d="M277.312 84.832H282.48C282.939 84.832 283.349 84.9013 283.712 85.04C284.085 85.1787 284.4 85.3707 284.656 85.616C284.912 85.8613 285.104 86.1653 285.232 86.528C285.371 86.88 285.44 87.2693 285.44 87.696C285.44 88.1227 285.381 88.4853 285.264 88.784C285.157 89.072 285.008 89.312 284.816 89.504C284.635 89.696 284.421 89.84 284.176 89.936C283.941 90.032 283.696 90.0853 283.44 90.096V90.192C283.685 90.192 283.947 90.24 284.224 90.336C284.512 90.432 284.773 90.5867 285.008 90.8C285.253 91.0027 285.456 91.2693 285.616 91.6C285.776 91.92 285.856 92.32 285.856 92.8C285.856 93.248 285.781 93.6693 285.632 94.064C285.493 94.448 285.296 94.784 285.04 95.072C284.784 95.36 284.48 95.5893 284.128 95.76C283.776 95.92 283.392 96 282.976 96H277.312V84.832ZM279.424 94.208H282.368C282.773 94.208 283.088 94.1067 283.312 93.904C283.536 93.6907 283.648 93.3867 283.648 92.992V92.448C283.648 92.0533 283.536 91.7493 283.312 91.536C283.088 91.3227 282.773 91.216 282.368 91.216H279.424V94.208ZM279.424 89.488H282.032C282.416 89.488 282.715 89.3867 282.928 89.184C283.141 88.9707 283.248 88.6773 283.248 88.304V87.808C283.248 87.4347 283.141 87.1467 282.928 86.944C282.715 86.7307 282.416 86.624 282.032 86.624H279.424V89.488ZM293.937 96C293.489 96 293.132 95.872 292.865 95.616C292.609 95.3493 292.449 94.9973 292.385 94.56H292.289C292.151 95.104 291.868 95.5147 291.441 95.792C291.015 96.0587 290.487 96.192 289.857 96.192C289.004 96.192 288.348 95.968 287.889 95.52C287.431 95.072 287.201 94.4747 287.201 93.728C287.201 92.864 287.511 92.224 288.129 91.808C288.748 91.3813 289.628 91.168 290.769 91.168H292.193V90.56C292.193 90.0907 292.071 89.728 291.825 89.472C291.58 89.216 291.185 89.088 290.641 89.088C290.161 89.088 289.772 89.1947 289.473 89.408C289.185 89.6107 288.94 89.856 288.737 90.144L287.521 89.056C287.831 88.576 288.241 88.192 288.753 87.904C289.265 87.6053 289.943 87.456 290.785 87.456C291.916 87.456 292.775 87.712 293.361 88.224C293.948 88.736 294.241 89.472 294.241 90.432V94.368H295.073V96H293.937ZM290.545 94.704C291.004 94.704 291.393 94.6027 291.713 94.4C292.033 94.1973 292.193 93.8987 292.193 93.504V92.4H290.881C289.815 92.4 289.281 92.7413 289.281 93.424V93.696C289.281 94.0373 289.388 94.2933 289.601 94.464C289.825 94.624 290.14 94.704 290.545 94.704ZM301.915 94.608H301.835C301.686 95.088 301.403 95.472 300.987 95.76C300.571 96.048 300.086 96.192 299.531 96.192C298.475 96.192 297.664 95.8133 297.099 95.056C296.544 94.2987 296.267 93.216 296.267 91.808C296.267 90.4107 296.544 89.3387 297.099 88.592C297.664 87.8347 298.475 87.456 299.531 87.456C300.086 87.456 300.571 87.6 300.987 87.888C301.403 88.1653 301.686 88.544 301.835 89.024H301.915V84.16H303.963V96H301.915V94.608ZM300.187 94.496C300.678 94.496 301.088 94.3787 301.419 94.144C301.75 93.9093 301.915 93.5733 301.915 93.136V90.48C301.915 90.0747 301.75 89.7493 301.419 89.504C301.088 89.2587 300.678 89.136 300.187 89.136C299.654 89.136 299.222 89.3173 298.891 89.68C298.571 90.032 298.411 90.5067 298.411 91.104V92.544C298.411 93.1413 298.571 93.616 298.891 93.968C299.222 94.32 299.654 94.496 300.187 94.496Z" fill="#DA1E28"/>
<rect x="268.5" y="76.5" width="45" height="27" rx="13.5" stroke="black" shape-rendering="crispEdges"/>
</g>
</g>
<defs>
<filter id="filter0_d_12580_287109" x="264" y="76" width="50" height="33" filterUnits="userSpaceOnUse" color-interpolation-filters="sRGB">
<feFlood flood-opacity="0" result="BackgroundImageFix"/>
<feColorMatrix in="SourceAlpha" type="matrix" values="0 0 0 0 0 0 0 0 0 0 0 0 0 0 0 0 0 0 127 0" result="hardAlpha"/>
<feOffset dx="-4" dy="5"/>
<feComposite in2="hardAlpha" operator="out"/>
<feColorMatrix type="matrix" values="0 0 0 0 0 0 0 0 0 0 0 0 0 0 0 0 0 0 0.24 0"/>
<feBlend mode="normal" in2="BackgroundImageFix" result="effect1_dropShadow_12580_287109"/>
<feBlend mode="normal" in="SourceGraphic" in2="effect1_dropShadow_12580_287109" result="shape"/>
</filter>
<clipPath id="clip0_12580_287109">
<rect width="480" height="230" fill="white"/>
</clipPath>
</defs>
</svg>
