<svg width="368" height="248" viewBox="0 0 368 248" fill="none" xmlns="http://www.w3.org/2000/svg">
<rect x="4" y="4" width="253" height="240" fill="#8D8D8D" fill-opacity="0.2" stroke="black"/>
<rect x="4" y="4" width="253" height="20" fill="#161616" stroke="black"/>
<path d="M187 14H237" stroke="white"/>
<rect x="4" y="24" width="253" height="40" stroke="black"/>
<path d="M24 44H74" stroke="black"/>
<path d="M24 164H62" stroke="black"/>
<path d="M24 184H62" stroke="black"/>
<path d="M24 204H62" stroke="black"/>
<path d="M24 224H62" stroke="black"/>
<path d="M98 44L237 44" stroke="black"/>
<path d="M98 204L237 204" stroke="black"/>
<path d="M98 184L237 184" stroke="black"/>
<path d="M98 164L237 164" stroke="black"/>
<path d="M98 224L237 224" stroke="black"/>
<rect x="4" y="64" width="253" height="80" stroke="black"/>
<path d="M31.191 198.5H24.809L28 192.118L31.191 198.5Z" fill="#F1C21B" stroke="black"/>
<circle cx="28" cy="175" r="3.5" fill="#00D66F" stroke="black"/>
<circle cx="28" cy="155" r="3.5" fill="#00D66F" stroke="black"/>
<rect x="24.5" y="211.5" width="7" height="7" rx="3.5" fill="#FA4D56" stroke="black"/>
<g filter="url(#filter0_d_12580_286775)">
<path fill-rule="evenodd" clip-rule="evenodd" d="M217 30L226 16L235 30H363V180H90V30H217Z" fill="white"/>
<path d="M226 16L226.421 15.7296L226 15.0754L225.579 15.7296L226 16ZM217 30V30.5H217.273L217.421 30.2704L217 30ZM235 30L234.579 30.2704L234.727 30.5H235V30ZM363 30H363.5V29.5H363V30ZM363 180V180.5H363.5V180H363ZM90 180H89.5V180.5H90V180ZM90 30V29.5H89.5V30H90ZM225.579 15.7296L216.579 29.7296L217.421 30.2704L226.421 16.2704L225.579 15.7296ZM235.421 29.7296L226.421 15.7296L225.579 16.2704L234.579 30.2704L235.421 29.7296ZM235 30.5H363V29.5H235V30.5ZM362.5 30V180H363.5V30H362.5ZM363 179.5H90V180.5H363V179.5ZM90.5 180V30H89.5V180H90.5ZM90 30.5H217V29.5H90V30.5Z" fill="black"/>
</g>
<path d="M110 50H262" stroke="black"/>
<rect x="110.5" y="60.5" width="230" height="39" fill="white"/>
<path d="M127.451 75.84H127.331L124.051 83.5L120.771 75.84H120.651V88H119.551V74.04H121.111L124.031 80.94H124.131L127.031 74.04H128.551V88H127.451V75.84ZM133.843 88V86.96H138.003V74.92H137.903L134.063 78.34L133.383 77.58L137.363 74.04H139.183V86.96H143.083V88H133.843ZM155.895 75.08H149.575L149.135 80.94L149.255 80.96C149.615 80.4667 150.028 80.1 150.495 79.86C150.975 79.6067 151.588 79.48 152.335 79.48C152.948 79.48 153.508 79.58 154.015 79.78C154.535 79.9667 154.975 80.2467 155.335 80.62C155.695 80.98 155.975 81.4267 156.175 81.96C156.375 82.48 156.475 83.0733 156.475 83.74C156.475 84.42 156.368 85.04 156.155 85.6C155.955 86.1467 155.655 86.62 155.255 87.02C154.868 87.4067 154.395 87.7067 153.835 87.92C153.275 88.1333 152.648 88.24 151.955 88.24C151.408 88.24 150.908 88.18 150.455 88.06C150.015 87.9533 149.615 87.8 149.255 87.6C148.908 87.3867 148.595 87.14 148.315 86.86C148.035 86.58 147.788 86.28 147.575 85.96L148.495 85.28C148.882 85.88 149.335 86.3533 149.855 86.7C150.388 87.0333 151.095 87.2 151.975 87.2C153.015 87.2 153.815 86.9067 154.375 86.32C154.948 85.7333 155.235 84.96 155.235 84V83.68C155.235 82.7067 154.955 81.9333 154.395 81.36C153.848 80.7867 153.055 80.5 152.015 80.5C151.642 80.5 151.315 80.5333 151.035 80.6C150.755 80.6533 150.502 80.74 150.275 80.86C150.062 80.9667 149.862 81.1 149.675 81.26C149.488 81.4067 149.308 81.58 149.135 81.78L148.095 81.62L148.595 74.04H155.895V75.08ZM166.627 75.08V88H165.427V75.08H160.647V74.04H171.407V75.08H166.627ZM175.82 88V86.96H179.98V74.92H179.88L176.04 78.34L175.36 77.58L179.34 74.04H181.16V86.96H185.06V88H175.82ZM193.492 80.16C194.478 80.16 195.245 79.9267 195.792 79.46C196.338 78.98 196.612 78.36 196.612 77.6V77.34C196.612 76.54 196.345 75.9267 195.812 75.5C195.292 75.06 194.612 74.84 193.772 74.84C192.945 74.84 192.285 75.0133 191.792 75.36C191.298 75.6933 190.905 76.14 190.612 76.7L189.712 76.06C189.872 75.7667 190.072 75.4867 190.312 75.22C190.565 74.94 190.852 74.6933 191.172 74.48C191.505 74.2667 191.885 74.1 192.312 73.98C192.752 73.86 193.245 73.8 193.792 73.8C194.378 73.8 194.918 73.88 195.412 74.04C195.918 74.2 196.352 74.4333 196.712 74.74C197.072 75.0333 197.352 75.4 197.552 75.84C197.765 76.2667 197.872 76.7533 197.872 77.3C197.872 77.7667 197.798 78.1867 197.652 78.56C197.518 78.9333 197.325 79.2533 197.072 79.52C196.832 79.7867 196.538 80.0133 196.192 80.2C195.858 80.3733 195.498 80.5067 195.112 80.6V80.68C195.525 80.7467 195.918 80.8733 196.292 81.06C196.665 81.2333 196.985 81.4667 197.252 81.76C197.532 82.0533 197.752 82.4067 197.912 82.82C198.072 83.2333 198.152 83.7 198.152 84.22C198.152 84.82 198.045 85.3733 197.832 85.88C197.618 86.3733 197.312 86.7933 196.912 87.14C196.512 87.4867 196.032 87.76 195.472 87.96C194.912 88.1467 194.285 88.24 193.592 88.24C193.032 88.24 192.525 88.18 192.072 88.06C191.618 87.9533 191.212 87.8 190.852 87.6C190.492 87.3867 190.172 87.14 189.892 86.86C189.612 86.58 189.365 86.28 189.152 85.96L190.052 85.28C190.438 85.88 190.905 86.3533 191.452 86.7C191.998 87.0333 192.712 87.2 193.592 87.2C194.618 87.2 195.425 86.9467 196.012 86.44C196.598 85.92 196.892 85.22 196.892 84.34V84.02C196.892 83.14 196.605 82.4533 196.032 81.96C195.472 81.4533 194.652 81.2 193.572 81.2H191.812V80.16H193.492ZM203.804 88V86.96H207.964V74.92H207.864L204.024 78.34L203.344 77.58L207.324 74.04H209.144V86.96H213.044V88H203.804ZM221.336 80.8L219.076 83.4V88H217.876V74.04H219.076V81.82H219.116L221.316 79.22L225.776 74.04H227.216L222.156 79.92L227.316 88H225.916L221.336 80.8ZM231.788 88V86.96H235.948V74.92H235.848L232.008 78.34L231.328 77.58L235.308 74.04H237.128V86.96H241.028V88H231.788ZM250 88.24C249.254 88.24 248.594 88.12 248.02 87.88C247.46 87.6267 246.987 87.28 246.6 86.84C246.214 86.3867 245.92 85.8467 245.72 85.22C245.534 84.58 245.44 83.88 245.44 83.12C245.44 82.04 245.587 81.04 245.88 80.12C246.187 79.1867 246.58 78.34 247.06 77.58C247.554 76.82 248.114 76.1467 248.74 75.56C249.367 74.96 250.007 74.4533 250.66 74.04H252.22C251.434 74.5733 250.734 75.1067 250.12 75.64C249.52 76.1733 248.994 76.74 248.54 77.34C248.087 77.9267 247.707 78.56 247.4 79.24C247.107 79.92 246.874 80.6667 246.7 81.48L246.78 81.5C247.127 80.8733 247.587 80.38 248.16 80.02C248.734 79.6467 249.447 79.46 250.3 79.46C250.927 79.46 251.494 79.56 252 79.76C252.52 79.96 252.967 80.2467 253.34 80.62C253.714 80.98 254 81.4267 254.2 81.96C254.4 82.48 254.5 83.0667 254.5 83.72C254.5 84.4 254.394 85.02 254.18 85.58C253.967 86.1267 253.667 86.6 253.28 87C252.894 87.3867 252.42 87.6933 251.86 87.92C251.3 88.1333 250.68 88.24 250 88.24ZM249.98 87.22C251.02 87.22 251.827 86.9333 252.4 86.36C252.987 85.7733 253.28 84.9933 253.28 84.02V83.66C253.28 82.6867 252.987 81.9133 252.4 81.34C251.827 80.7533 251.02 80.46 249.98 80.46C248.927 80.46 248.107 80.7533 247.52 81.34C246.947 81.9133 246.66 82.6867 246.66 83.66V84.02C246.66 84.9933 246.947 85.7733 247.52 86.36C248.107 86.9333 248.927 87.22 249.98 87.22ZM260.913 74.04V82.46C260.913 83.2733 260.946 83.98 261.013 84.58C261.079 85.1667 261.219 85.66 261.433 86.06C261.646 86.4467 261.953 86.7333 262.353 86.92C262.753 87.1067 263.293 87.2 263.973 87.2C264.653 87.2 265.193 87.1067 265.593 86.92C265.993 86.7333 266.299 86.4467 266.513 86.06C266.726 85.66 266.866 85.1667 266.933 84.58C266.999 83.98 267.033 83.2733 267.033 82.46V74.04H268.233V82.22C268.233 83.2867 268.173 84.2 268.053 84.96C267.946 85.7067 267.733 86.3267 267.413 86.82C267.106 87.3133 266.673 87.6733 266.113 87.9C265.566 88.1267 264.853 88.24 263.973 88.24C263.093 88.24 262.373 88.1267 261.813 87.9C261.266 87.6733 260.833 87.3133 260.513 86.82C260.206 86.3267 259.993 85.7067 259.873 84.96C259.766 84.2 259.713 83.2867 259.713 82.22V74.04H260.913ZM274.905 75.58H274.805V88H273.705V74.04H275.405L281.025 86.38H281.125V74.04H282.225V88H280.525L274.905 75.58ZM291.977 88.24C291.23 88.24 290.57 88.12 289.997 87.88C289.437 87.6267 288.964 87.28 288.577 86.84C288.19 86.3867 287.897 85.8467 287.697 85.22C287.51 84.58 287.417 83.88 287.417 83.12C287.417 82.04 287.564 81.04 287.857 80.12C288.164 79.1867 288.557 78.34 289.037 77.58C289.53 76.82 290.09 76.1467 290.717 75.56C291.344 74.96 291.984 74.4533 292.637 74.04H294.197C293.41 74.5733 292.71 75.1067 292.097 75.64C291.497 76.1733 290.97 76.74 290.517 77.34C290.064 77.9267 289.684 78.56 289.377 79.24C289.084 79.92 288.85 80.6667 288.677 81.48L288.757 81.5C289.104 80.8733 289.564 80.38 290.137 80.02C290.71 79.6467 291.424 79.46 292.277 79.46C292.904 79.46 293.47 79.56 293.977 79.76C294.497 79.96 294.944 80.2467 295.317 80.62C295.69 80.98 295.977 81.4267 296.177 81.96C296.377 82.48 296.477 83.0667 296.477 83.72C296.477 84.4 296.37 85.02 296.157 85.58C295.944 86.1267 295.644 86.6 295.257 87C294.87 87.3867 294.397 87.6933 293.837 87.92C293.277 88.1333 292.657 88.24 291.977 88.24ZM291.957 87.22C292.997 87.22 293.804 86.9333 294.377 86.36C294.964 85.7733 295.257 84.9933 295.257 84.02V83.66C295.257 82.6867 294.964 81.9133 294.377 81.34C293.804 80.7533 292.997 80.46 291.957 80.46C290.904 80.46 290.084 80.7533 289.497 81.34C288.924 81.9133 288.637 82.6867 288.637 83.66V84.02C288.637 84.9933 288.924 85.7733 289.497 86.36C290.084 86.9333 290.904 87.22 291.957 87.22Z" fill="black"/>
<rect x="110.5" y="60.5" width="230" height="39" stroke="black"/>
<rect width="124" height="40" transform="translate(110 120)" fill="#0F62FE"/>
<path d="M130 140H177" stroke="white"/>
<path d="M203 145V170L208.95 164.286L213.625 175L217.237 173.5L212.562 162.357L220 162.143L203 145Z" fill="#4B4B4B" fill-opacity="0.5"/>
<path d="M205 142V167L210.95 161.286L215.625 172L219.237 170.5L214.562 159.357L222 159.143L205 142Z" fill="white" stroke="black"/>
<path d="M191 143H198.5M194.75 131.75L200.375 137.375M206 128V135.5" stroke="black"/>
<defs>
<filter id="filter0_d_12580_286775" x="77.5" y="15.0754" width="286" height="177.425" filterUnits="userSpaceOnUse" color-interpolation-filters="sRGB">
<feFlood flood-opacity="0" result="BackgroundImageFix"/>
<feColorMatrix in="SourceAlpha" type="matrix" values="0 0 0 0 0 0 0 0 0 0 0 0 0 0 0 0 0 0 127 0" result="hardAlpha"/>
<feOffset dx="-12" dy="12"/>
<feComposite in2="hardAlpha" operator="out"/>
<feColorMatrix type="matrix" values="0 0 0 0 0 0 0 0 0 0 0 0 0 0 0 0 0 0 0.25 0"/>
<feBlend mode="normal" in2="BackgroundImageFix" result="effect1_dropShadow_12580_286775"/>
<feBlend mode="normal" in="SourceGraphic" in2="effect1_dropShadow_12580_286775" result="shape"/>
</filter>
</defs>
</svg>
