<svg width="764" height="326" viewBox="0 0 764 326" fill="none" xmlns="http://www.w3.org/2000/svg">
<circle cx="702" cy="69" r="60" stroke="white"/>
<rect x="382" y="117" width="100" height="32" fill="#0F62FE" stroke="white"/>
<circle cx="398" cy="133" r="10.5" fill="#A5F59C" stroke="white"/>
<path d="M392.5 133L396.281 136.781L403.5 129.562" stroke="black"/>
<path d="M414 133H462" stroke="white"/>
<rect x="542" y="53" width="194" height="32" fill="#0F62FE" stroke="white"/>
<circle cx="558" cy="69" r="10.5" fill="#A5F59C" stroke="white"/>
<path d="M552.5 69L556.281 72.7812L563.5 65.5625" stroke="black"/>
<path d="M574 69H622" stroke="white"/>
<rect x="194" y="85" width="188" height="32" fill="#0F62FE" stroke="white"/>
<circle cx="210" cy="101" r="10.5" fill="#A5F59C" stroke="white"/>
<path d="M204.5 101L208.281 104.781L215.5 97.5625" stroke="black"/>
<path d="M226 101H274" stroke="white"/>
<path d="M379.333 213C379.333 214.473 380.527 215.667 382 215.667C383.473 215.667 384.667 214.473 384.667 213C384.667 211.527 383.473 210.333 382 210.333C380.527 210.333 379.333 211.527 379.333 213ZM381.5 85L381.5 88.3939L382.5 88.3939L382.5 85L381.5 85ZM381.5 93.2424L381.5 100.03L382.5 100.03L382.5 93.2424L381.5 93.2424ZM381.5 104.879L381.5 111.667L382.5 111.667L382.5 104.879L381.5 104.879ZM381.5 116.515L381.5 123.303L382.5 123.303L382.5 116.515L381.5 116.515ZM381.5 128.152L381.5 134.939L382.5 134.939L382.5 128.152L381.5 128.152ZM381.5 139.788L381.5 146.576L382.5 146.576L382.5 139.788L381.5 139.788ZM381.5 151.424L381.5 158.212L382.5 158.212L382.5 151.424L381.5 151.424ZM381.5 163.061L381.5 169.848L382.5 169.848L382.5 163.061L381.5 163.061ZM381.5 174.697L381.5 181.485L382.5 181.485L382.5 174.697L381.5 174.697ZM381.5 186.333L381.5 193.121L382.5 193.121L382.5 186.333L381.5 186.333ZM381.5 197.97L381.5 204.758L382.5 204.758L382.5 197.97L381.5 197.97ZM381.5 209.606L381.5 213L382.5 213L382.5 209.606L381.5 209.606Z" fill="white"/>
<path d="M539.333 213C539.333 214.473 540.527 215.667 542 215.667C543.473 215.667 544.667 214.473 544.667 213C544.667 211.527 543.473 210.333 542 210.333C540.527 210.333 539.333 211.527 539.333 213ZM541.5 53L541.5 56.5897L542.5 56.5897L542.5 53L541.5 53ZM541.5 61.7179L541.5 68.8974L542.5 68.8974L542.5 61.7179L541.5 61.7179ZM541.5 74.0256L541.5 81.2051L542.5 81.2051L542.5 74.0256L541.5 74.0256ZM541.5 86.3333L541.5 93.5128L542.5 93.5128L542.5 86.3333L541.5 86.3333ZM541.5 98.641L541.5 105.821L542.5 105.821L542.5 98.641L541.5 98.641ZM541.5 110.949L541.5 118.128L542.5 118.128L542.5 110.949L541.5 110.949ZM541.5 123.256L541.5 130.436L542.5 130.436L542.5 123.256L541.5 123.256ZM541.5 135.564L541.5 142.744L542.5 142.744L542.5 135.564L541.5 135.564ZM541.5 147.872L541.5 155.051L542.5 155.051L542.5 147.872L541.5 147.872ZM541.5 160.18L541.5 167.359L542.5 167.359L542.5 160.18L541.5 160.18ZM541.5 172.487L541.5 179.667L542.5 179.667L542.5 172.487L541.5 172.487ZM541.5 184.795L541.5 191.974L542.5 191.974L542.5 184.795L541.5 184.795ZM541.5 197.103L541.5 204.282L542.5 204.282L542.5 197.103L541.5 197.103ZM541.5 209.41L541.5 213L542.5 213L542.5 209.41L541.5 209.41Z" fill="white"/>
<path d="M191.333 213C191.333 214.473 192.527 215.667 194 215.667C195.473 215.667 196.667 214.473 196.667 213C196.667 211.527 195.473 210.333 194 210.333C192.527 210.333 191.333 211.527 191.333 213ZM193.5 85L193.5 88.3939L194.5 88.3939L194.5 85L193.5 85ZM193.5 93.2424L193.5 100.03L194.5 100.03L194.5 93.2424L193.5 93.2424ZM193.5 104.879L193.5 111.667L194.5 111.667L194.5 104.879L193.5 104.879ZM193.5 116.515L193.5 123.303L194.5 123.303L194.5 116.515L193.5 116.515ZM193.5 128.152L193.5 134.939L194.5 134.939L194.5 128.152L193.5 128.152ZM193.5 139.788L193.5 146.576L194.5 146.576L194.5 139.788L193.5 139.788ZM193.5 151.424L193.5 158.212L194.5 158.212L194.5 151.424L193.5 151.424ZM193.5 163.061L193.5 169.848L194.5 169.848L194.5 163.061L193.5 163.061ZM193.5 174.697L193.5 181.485L194.5 181.485L194.5 174.697L193.5 174.697ZM193.5 186.333L193.5 193.121L194.5 193.121L194.5 186.333L193.5 186.333ZM193.5 197.97L193.5 204.758L194.5 204.758L194.5 197.97L193.5 197.97ZM193.5 209.606L193.5 213L194.5 213L194.5 209.606L193.5 209.606Z" fill="white"/>
<rect x="482" y="85" width="156" height="32" fill="#0F62FE" stroke="white"/>
<circle cx="498" cy="101" r="10.5" fill="#A5F59C" stroke="white"/>
<path d="M492.5 101L496.281 104.781L503.5 97.5625" stroke="black"/>
<path d="M514 101H562" stroke="white"/>
<path d="M479.333 213C479.333 214.473 480.527 215.667 482 215.667C483.473 215.667 484.667 214.473 484.667 213C484.667 211.527 483.473 210.333 482 210.333C480.527 210.333 479.333 211.527 479.333 213ZM481.5 117L481.5 120.5L482.5 120.5L482.5 117L481.5 117ZM481.5 125.5L481.5 132.5L482.5 132.5L482.5 125.5L481.5 125.5ZM481.5 137.5L481.5 144.5L482.5 144.5L482.5 137.5L481.5 137.5ZM481.5 149.5L481.5 156.5L482.5 156.5L482.5 149.5L481.5 149.5ZM481.5 161.5L481.5 168.5L482.5 168.5L482.5 161.5L481.5 161.5ZM481.5 173.5L481.5 180.5L482.5 180.5L482.5 173.5L481.5 173.5ZM481.5 185.5L481.5 192.5L482.5 192.5L482.5 185.5L481.5 185.5ZM481.5 197.5L481.5 204.5L482.5 204.5L482.5 197.5L481.5 197.5ZM481.5 209.5L481.5 213L482.5 213L482.5 209.5L481.5 209.5Z" fill="white"/>
<g filter="url(#filter0_d_12580_282321)">
<rect x="672" y="35" width="64" height="64" fill="#94F0F0"/>
<rect x="672" y="35" width="64" height="64" stroke="black"/>
</g>
<rect width="48" height="48" transform="translate(680 43)" fill="white" style="mix-blend-mode:multiply"/>
<path d="M725.288 87.46L704.54 56.3365V51.04H711.303L708.514 48.25L711.303 45.46H703.46V56.3365L682.711 87.46H681.5V88.5415H726.5V87.46H725.288ZM704.54 46.54H708.697L706.986 48.25L708.697 49.96H704.54V46.54ZM684.01 87.46L692 75.4735L699.99 87.4585L684.01 87.46ZM701.289 87.46L692.649 74.5L698 66.4735L711.99 87.46H701.289ZM713.288 87.46L698.649 65.5L704 57.4735L723.991 87.46H713.288Z" fill="black"/>
<rect width="40" height="40" transform="translate(194 33)" fill="white" style="mix-blend-mode:multiply"/>
<path d="M203.971 72.1988C203.294 72.1988 202.627 71.9638 202.089 71.5238C200.989 70.6251 200.727 68.9638 201.482 67.6576L207.352 57.4901L208.132 57.9388L202.262 68.1076C201.726 69.0351 201.896 70.2038 202.659 70.8251C203.141 71.2188 203.735 71.3751 204.34 71.2663C204.932 71.1576 205.445 70.7963 205.746 70.2751L211.685 59.9901L212.464 60.4388L206.526 70.7238C206.094 71.4751 205.356 71.9951 204.502 72.1513C204.324 72.1838 204.146 72.1988 203.971 72.1988ZM216.501 72.1963C215.824 72.1963 215.159 71.9613 214.619 71.5188C213.52 70.6213 213.259 68.9601 214.012 67.6551L217.47 61.6651L210.824 57.8276C209.206 56.8938 208.284 55.1101 208.425 53.2776C207.414 53.0251 206.664 52.1088 206.664 51.0213V44.1463C206.664 42.5201 207.987 41.1963 209.614 41.1963H217.327C216.675 39.9413 216.686 38.4063 217.411 37.1513C218.57 35.1463 221.142 34.4551 223.149 35.6138C224.12 36.1751 224.815 37.0813 225.105 38.1651C225.395 39.2488 225.246 40.3801 224.685 41.3526C224.052 42.4476 222.987 43.1813 221.779 43.3938C222.045 43.7663 222.251 44.1601 222.4 44.5651L226.275 46.8026L228.862 42.3201C229.502 41.2101 230.927 40.8276 232.037 41.4688C233.149 42.1101 233.529 43.5351 232.889 44.6451L229.451 50.5988C228.639 52.0051 226.827 52.4901 225.421 51.6788L221.481 49.4038L219.206 53.3438L218.427 52.8938L221.24 48.0226C222.155 46.4363 221.894 44.6788 220.542 43.3188C220.411 43.1876 220.374 42.9876 220.45 42.8188C220.527 42.6501 220.68 42.5376 220.885 42.5526C222.115 42.6088 223.284 41.9826 223.907 40.9038C224.349 40.1401 224.465 39.2513 224.237 38.4001C224.01 37.5488 223.464 36.8376 222.701 36.3951C221.124 35.4851 219.104 36.0276 218.192 37.6038C217.506 38.7938 217.634 40.3051 218.511 41.3613C218.579 41.4426 218.615 41.5438 218.615 41.6488C218.615 42.0988 218.615 42.0988 209.615 42.0988C208.485 42.0988 207.565 43.0188 207.565 44.1488V51.0238C207.565 51.8088 208.205 52.4488 208.99 52.4488C209.775 52.4488 210.415 51.8088 210.415 51.0238V45.4826C210.415 45.2338 210.616 45.0326 210.865 45.0326H215.266V45.9326H211.312V51.0213C211.312 52.1901 210.447 53.1588 209.324 53.3226C209.199 54.8226 209.95 56.2851 211.275 57.0488L218.31 61.1113C218.526 61.2363 218.599 61.5101 218.475 61.7251L214.792 68.1051C214.256 69.0326 214.427 70.2013 215.189 70.8226C215.671 71.2163 216.262 71.3738 216.869 71.2638C217.462 71.1551 217.975 70.7938 218.276 70.2726L223.276 61.6126C223.55 61.1376 223.622 60.5851 223.481 60.0563C223.34 59.5263 223 59.0851 222.526 58.8113L214.947 54.4363L215.397 53.6563L222.975 58.0313C223.657 58.4238 224.146 59.0601 224.35 59.8226C224.554 60.5851 224.449 61.3788 224.055 62.0613L219.055 70.7213C218.621 71.4726 217.882 71.9938 217.03 72.1488C216.854 72.1813 216.677 72.1963 216.501 72.1963ZM221.931 48.6226L225.87 50.8976C226.849 51.4626 228.105 51.1263 228.671 50.1463L232.109 44.1926C232.5 43.5126 232.267 42.6388 231.587 42.2463C230.905 41.8551 230.035 42.0888 229.64 42.7676L226.827 47.6388C226.702 47.8551 226.427 47.9288 226.214 47.8038L222.66 45.7526C222.732 46.6638 222.522 47.5963 222.016 48.4701L221.931 48.6226ZM204 54.7001H195.25V53.8001H204V54.7001ZM204 49.7001H195.25V48.8001H204V49.7001ZM204 44.7001H195.25V43.8001H204V44.7001Z" fill="white"/>
<path d="M2 181C2 163.327 16.3269 149 34 149C51.6731 149 66 163.327 66 181V213H2V181Z" fill="#A06AF9" stroke="white"/>
<path d="M98 181H130V213H98V181Z" fill="white" style="mix-blend-mode:multiply"/>
<path d="M98 181V180.5H97.5V181H98ZM98 181.5H130V180.5H98V181.5ZM98.5 213V181H97.5V213H98.5Z" fill="white"/>
<path d="M130 149H162V181H130V149Z" fill="white" style="mix-blend-mode:multiply"/>
<path d="M130 149V148.5H129.5V149H130ZM130 149.5H162V148.5H130V149.5ZM130.5 181V149H129.5V181H130.5Z" fill="white"/>
<path d="M162 117H194V149H162V117Z" fill="white" style="mix-blend-mode:multiply"/>
<path d="M162 117V116.5H161.5V117H162ZM162 117.5H194V116.5H162V117.5ZM162.5 149V117H161.5V149H162.5Z" fill="white"/>
<path d="M2 213L194 213" stroke="white"/>
<path d="M2 243L194 243" stroke="white"/>
<path d="M226 213L386 213" stroke="white"/>
<path d="M226 243L386 243" stroke="white"/>
<path d="M414 213L482 213" stroke="white"/>
<path d="M414 243L482 243" stroke="white"/>
<path d="M514 213L542 213" stroke="white"/>
<path d="M514 243L542 243" stroke="white"/>
<path d="M560.5 213L693.5 213" stroke="white"/>
<path d="M696.5 213L702.5 213" stroke="white"/>
<path d="M705.5 213L711.5 213" stroke="white"/>
<path d="M714.5 213L720.5 213" stroke="white"/>
<path d="M723.5 213L729.5 213" stroke="white"/>
<path d="M732.5 213L738.5 213" stroke="white"/>
<path d="M741.5 213L747.5 213" stroke="white"/>
<path d="M547 243L680 243" stroke="white"/>
<path d="M683 243L689 243" stroke="white"/>
<path d="M692 243L698 243" stroke="white"/>
<path d="M701 243L707 243" stroke="white"/>
<path d="M710 243L716 243" stroke="white"/>
<path d="M719 243L725 243" stroke="white"/>
<path d="M728 243L734 243" stroke="white"/>
<path d="M737 243L743 243" stroke="white"/>
<path d="M746 243L752 243" stroke="white"/>
<path d="M755 243L761 243" stroke="white"/>
<rect x="194" y="213" width="32" height="30" fill="white" fill-opacity="0.15" stroke="white"/>
<path d="M202 228H218" stroke="white"/>
<rect x="382" y="213" width="32" height="30" fill="white" fill-opacity="0.15" stroke="white"/>
<path d="M390 228H406" stroke="white"/>
<rect x="482" y="213" width="32" height="30" fill="white" fill-opacity="0.15" stroke="white"/>
<path d="M490 228H506" stroke="white"/>
<rect x="542" y="213" width="32" height="30" fill="white" fill-opacity="0.15" stroke="white"/>
<path d="M550 228H566" stroke="white"/>
<path d="M2 205V221" stroke="white"/>
<path d="M379.333 323C379.333 324.473 380.527 325.667 382 325.667C383.473 325.667 384.667 324.473 384.667 323C384.667 321.527 383.473 320.333 382 320.333C380.527 320.333 379.333 321.527 379.333 323ZM381.5 243V323H382.5V243H381.5Z" fill="white"/>
<rect x="414" y="254" width="16" height="16" fill="#161616" stroke="white"/>
<path d="M418 262L421 265L427 259" stroke="white"/>
<path d="M438 262L470 262" stroke="white"/>
<rect x="414" y="274" width="16" height="16" fill="#161616" stroke="white"/>
<path d="M418 282L421 285L427 279" stroke="white"/>
<path d="M438 282L470 282" stroke="white"/>
<rect x="482" y="254" width="16" height="16" fill="#161616" stroke="white"/>
<path d="M486 262L489 265L495 259" stroke="white"/>
<path d="M506 262L538 262" stroke="white"/>
<rect x="274" y="186" width="84" height="84" fill="black" stroke="white"/>
<circle cx="316" cy="228" r="32" fill="#0F62FE" stroke="black"/>
<path d="M338.627 250.627C333.07 256.185 325.661 259.503 317.814 259.949C309.968 260.394 302.231 257.936 296.08 253.044C289.929 248.151 285.794 241.166 284.462 233.42C283.131 225.674 284.697 217.709 288.862 211.044C293.026 204.378 299.498 199.479 307.044 197.279C314.589 195.079 322.68 195.733 329.775 199.116C336.869 202.5 342.47 208.375 345.51 215.623C348.549 222.871 348.816 230.984 346.257 238.416L316 228L338.627 250.627Z" fill="#FBA3FF" stroke="black"/>
<path d="M338.627 250.627C334.906 254.349 330.325 257.094 325.289 258.622C320.253 260.15 314.918 260.412 309.757 259.385C304.596 258.358 299.767 256.075 295.699 252.736C291.632 249.398 288.45 245.108 286.436 240.246C284.422 235.384 283.638 230.101 284.154 224.863C284.67 219.626 286.469 214.597 289.393 210.222C292.317 205.846 296.274 202.259 300.915 199.779C305.556 197.298 310.738 196 316 196V228L338.627 250.627Z" fill="#8E96FF" stroke="black"/>
<rect x="574" y="164" width="130" height="64" fill="black" stroke="white"/>
<rect x="582.125" y="210.648" width="6.5625" height="17.3521" fill="#FA4D56" stroke="white"/>
<rect x="597.438" y="192.507" width="6.5625" height="35.493" fill="black" stroke="white"/>
<rect x="612.75" y="201.972" width="6.5625" height="26.0282" fill="black" stroke="white"/>
<rect x="628.063" y="189.352" width="6.5625" height="38.6479" fill="black" stroke="white"/>
<rect x="643.375" y="182" width="6.5625" height="46" fill="#00D66F" stroke="white"/>
<rect x="658.688" y="179.098" width="6.5625" height="48.9014" fill="white" stroke="white"/>
<rect x="674" y="175.155" width="6.5625" height="52.8451" fill="white" stroke="white"/>
<rect x="689.312" y="172" width="6.5625" height="56" fill="white" stroke="white"/>
<path d="M575 182L704 182" stroke="#6F6F6F" stroke-dasharray="6 3"/>
<path d="M582.057 182L575.5 186.098V177.902L582.057 182Z" fill="#FBA3FF" stroke="black"/>
<path d="M728 25.5H738.333M743.5 20.3333V10M748.667 25.5H759M743.5 30.6667V41" stroke="white"/>
<path d="M692.96 139.881L700.267 132.574M700.267 125.267L692.96 117.96M707.574 125.267L714.88 117.96M707.574 132.574L714.88 139.881" stroke="white"/>
<path d="M118 9L150 9" stroke="white"/>
<path d="M138 25L170 25" stroke="white"/>
<path d="M2 213L162 53M162 53H65.3333M162 53V149.667" stroke="white"/>
<rect x="162" y="1" width="16" height="16" fill="#161616" stroke="white"/>
<path d="M170 5L166 12H174L170 5Z" fill="#F1C21B"/>
<rect x="178" y="17" width="16" height="16" fill="#161616" stroke="white"/>
<circle cx="186" cy="25" r="4" fill="#00D66F"/>
<rect x="138" y="157" width="16" height="16" fill="#F1C21B" stroke="white"/>
<rect x="154" y="157" width="40" height="16" fill="#565656"/>
<path d="M162 165H186" stroke="white"/>
<rect x="154" y="157" width="40" height="16" stroke="white"/>
<rect x="170" y="125" width="16" height="16" fill="#00D66F" stroke="white"/>
<rect x="186" y="125" width="40" height="16" fill="#565656"/>
<path d="M194 133H218" stroke="white"/>
<rect x="186" y="125" width="40" height="16" stroke="white"/>
<rect x="106" y="189" width="16" height="16" fill="#FA4D56" stroke="white"/>
<rect x="122" y="189" width="40" height="16" fill="#565656"/>
<path d="M130 197H154" stroke="white"/>
<rect x="122" y="189" width="40" height="16" stroke="white"/>
<defs>
<filter id="filter0_d_12580_282321" x="663.5" y="34.5" width="73" height="73" filterUnits="userSpaceOnUse" color-interpolation-filters="sRGB">
<feFlood flood-opacity="0" result="BackgroundImageFix"/>
<feColorMatrix in="SourceAlpha" type="matrix" values="0 0 0 0 0 0 0 0 0 0 0 0 0 0 0 0 0 0 127 0" result="hardAlpha"/>
<feOffset dx="-8" dy="8"/>
<feComposite in2="hardAlpha" operator="out"/>
<feColorMatrix type="matrix" values="0 0 0 0 1 0 0 0 0 1 0 0 0 0 1 0 0 0 0.32 0"/>
<feBlend mode="normal" in2="BackgroundImageFix" result="effect1_dropShadow_12580_282321"/>
<feBlend mode="normal" in="SourceGraphic" in2="effect1_dropShadow_12580_282321" result="shape"/>
</filter>
</defs>
</svg>
