<svg width="480" height="230" viewBox="0 0 480 230" fill="none" xmlns="http://www.w3.org/2000/svg">
<g clip-path="url(#clip0_12580_287017)">
<rect x="1" y="131" width="13" height="100" fill="#8D8D8D" fill-opacity="0.5" stroke="black"/>
<rect x="14" y="125" width="13" height="106" fill="white" stroke="black"/>
<rect x="49" y="53" width="13" height="178" fill="#8D8D8D" fill-opacity="0.5" stroke="black"/>
<rect x="62" y="59" width="13" height="172" fill="white" stroke="black"/>
<rect x="97" y="67" width="13" height="164" fill="#8D8D8D" fill-opacity="0.5" stroke="black"/>
<rect x="110" y="73" width="13" height="158" fill="white" stroke="black"/>
<rect x="145" y="59" width="13" height="172" fill="#8D8D8D" fill-opacity="0.5" stroke="black"/>
<rect x="158" y="59" width="13" height="172" fill="#F1C21B" stroke="black"/>
<rect x="193" y="23" width="13" height="208" fill="#8D8D8D" fill-opacity="0.5" stroke="black"/>
<rect x="206" y="29" width="13" height="202" fill="white" stroke="black"/>
<rect x="241" y="92" width="13" height="139" fill="#8D8D8D" fill-opacity="0.5" stroke="black"/>
<path d="M257 94H260.5M264 94H260.5M260.5 94V104M260.5 104H257M260.5 104H264" stroke="#FF832B"/>
<rect x="254" y="106" width="13" height="125" fill="#F1C21B" stroke="black"/>
<rect x="289" y="57" width="13" height="174" fill="#8D8D8D" fill-opacity="0.5" stroke="black"/>
<rect x="302" y="67" width="13" height="164" fill="white" stroke="black"/>
<rect x="337" y="125" width="13" height="106" fill="#8D8D8D" fill-opacity="0.5" stroke="black"/>
<rect x="350" y="112" width="13" height="119" fill="white" stroke="black"/>
<rect x="385" y="120" width="12" height="111" fill="#8D8D8D" fill-opacity="0.5" stroke="black"/>
<rect x="397" y="120" width="12" height="111" fill="#F1C21B" stroke="black"/>
<rect x="431" y="5" width="12.8919" height="226" fill="#8D8D8D" fill-opacity="0.5" stroke="black"/>
<rect x="443.892" y="10" width="13" height="221" fill="white" stroke="black"/>
<path opacity="0.2" d="M1 106L477 106" stroke="black" stroke-dasharray="6 3"/>
<path d="M10.1281 106L1.5 112.04V99.9603L10.1281 106Z" fill="#FBA3FF" stroke="black"/>
<path opacity="0.2" d="M1 92L477 92" stroke="black" stroke-dasharray="6 3"/>
<path d="M10.1281 92L1.5 98.0397V85.9603L10.1281 92Z" fill="#FBA3FF" stroke="black"/>
<g filter="url(#filter0_d_12580_287017)">
<rect x="272" y="84" width="78" height="28" rx="14" fill="white" shape-rendering="crispEdges"/>
<path d="M283.008 104L280.416 92.832H282.528L283.632 98.192L284.32 101.616H284.368L285.168 98.192L286.448 92.832H288.784L290.064 98.192L290.848 101.616H290.896L291.6 98.192L292.736 92.832H294.752L292.08 104H289.696L288.272 98.096L287.584 95.152H287.552L286.832 98.096L285.408 104H283.008ZM302.125 104C301.677 104 301.32 103.872 301.053 103.616C300.797 103.349 300.637 102.997 300.573 102.56H300.477C300.338 103.104 300.056 103.515 299.629 103.792C299.202 104.059 298.674 104.192 298.045 104.192C297.192 104.192 296.536 103.968 296.077 103.52C295.618 103.072 295.389 102.475 295.389 101.728C295.389 100.864 295.698 100.224 296.317 99.808C296.936 99.3813 297.816 99.168 298.957 99.168H300.381V98.56C300.381 98.0907 300.258 97.728 300.013 97.472C299.768 97.216 299.373 97.088 298.829 97.088C298.349 97.088 297.96 97.1947 297.661 97.408C297.373 97.6107 297.128 97.856 296.925 98.144L295.709 97.056C296.018 96.576 296.429 96.192 296.941 95.904C297.453 95.6053 298.13 95.456 298.973 95.456C300.104 95.456 300.962 95.712 301.549 96.224C302.136 96.736 302.429 97.472 302.429 98.432V102.368H303.261V104H302.125ZM298.733 102.704C299.192 102.704 299.581 102.603 299.901 102.4C300.221 102.197 300.381 101.899 300.381 101.504V100.4H299.069C298.002 100.4 297.469 100.741 297.469 101.424V101.696C297.469 102.037 297.576 102.293 297.789 102.464C298.013 102.624 298.328 102.704 298.733 102.704ZM304.918 104V95.648H306.966V97.376H307.046C307.1 97.152 307.18 96.9387 307.286 96.736C307.404 96.5227 307.553 96.336 307.734 96.176C307.916 96.016 308.129 95.888 308.374 95.792C308.63 95.696 308.924 95.648 309.254 95.648H309.702V97.584H309.062C308.369 97.584 307.846 97.6853 307.494 97.888C307.142 98.0907 306.966 98.4213 306.966 98.88V104H304.918ZM311.2 104V95.648H313.248V97.04H313.328C313.498 96.592 313.765 96.2187 314.128 95.92C314.501 95.6107 315.013 95.456 315.664 95.456C316.528 95.456 317.189 95.7387 317.648 96.304C318.106 96.8693 318.336 97.6747 318.336 98.72V104H316.288V98.928C316.288 98.3307 316.181 97.8827 315.968 97.584C315.754 97.2853 315.402 97.136 314.912 97.136C314.698 97.136 314.49 97.168 314.288 97.232C314.096 97.2853 313.92 97.3707 313.76 97.488C313.61 97.5947 313.488 97.7333 313.392 97.904C313.296 98.064 313.248 98.256 313.248 98.48V104H311.2ZM321.63 94.432C321.203 94.432 320.894 94.336 320.702 94.144C320.521 93.952 320.43 93.7067 320.43 93.408V93.088C320.43 92.7893 320.521 92.544 320.702 92.352C320.894 92.16 321.203 92.064 321.63 92.064C322.046 92.064 322.35 92.16 322.542 92.352C322.734 92.544 322.83 92.7893 322.83 93.088V93.408C322.83 93.7067 322.734 93.952 322.542 94.144C322.35 94.336 322.046 94.432 321.63 94.432ZM320.606 95.648H322.654V104H320.606V95.648ZM325.028 104V95.648H327.076V97.04H327.156C327.326 96.592 327.593 96.2187 327.956 95.92C328.329 95.6107 328.841 95.456 329.492 95.456C330.356 95.456 331.017 95.7387 331.476 96.304C331.934 96.8693 332.164 97.6747 332.164 98.72V104H330.116V98.928C330.116 98.3307 330.009 97.8827 329.796 97.584C329.582 97.2853 329.23 97.136 328.74 97.136C328.526 97.136 328.318 97.168 328.116 97.232C327.924 97.2853 327.748 97.3707 327.588 97.488C327.438 97.5947 327.316 97.7333 327.22 97.904C327.124 98.064 327.076 98.256 327.076 98.48V104H325.028ZM341.97 104.704C341.97 105.141 341.89 105.525 341.73 105.856C341.581 106.197 341.33 106.48 340.978 106.704C340.626 106.928 340.173 107.099 339.618 107.216C339.063 107.333 338.386 107.392 337.586 107.392C336.882 107.392 336.285 107.344 335.794 107.248C335.303 107.163 334.898 107.035 334.578 106.864C334.269 106.704 334.045 106.501 333.906 106.256C333.767 106.011 333.698 105.733 333.698 105.424C333.698 104.955 333.826 104.587 334.082 104.32C334.349 104.064 334.717 103.899 335.186 103.824V103.648C334.845 103.563 334.578 103.397 334.386 103.152C334.205 102.896 334.114 102.597 334.114 102.256C334.114 102.043 334.157 101.856 334.242 101.696C334.327 101.525 334.439 101.381 334.578 101.264C334.727 101.147 334.893 101.051 335.074 100.976C335.255 100.891 335.447 100.827 335.65 100.784V100.72C335.138 100.485 334.754 100.16 334.498 99.744C334.253 99.328 334.13 98.8427 334.13 98.288C334.13 97.4347 334.423 96.752 335.01 96.24C335.597 95.7173 336.455 95.456 337.586 95.456C337.842 95.456 338.093 95.472 338.338 95.504C338.594 95.536 338.829 95.5893 339.042 95.664V95.392C339.042 94.5813 339.437 94.176 340.226 94.176H341.522V95.744H339.746V95.968C340.183 96.2133 340.509 96.5333 340.722 96.928C340.935 97.3227 341.042 97.776 341.042 98.288C341.042 99.1307 340.749 99.808 340.162 100.32C339.586 100.832 338.727 101.088 337.586 101.088C337.095 101.088 336.669 101.04 336.306 100.944C336.146 101.019 336.007 101.12 335.89 101.248C335.773 101.365 335.714 101.515 335.714 101.696C335.714 102.112 336.077 102.32 336.802 102.32H339.042C340.066 102.32 340.807 102.533 341.266 102.96C341.735 103.376 341.97 103.957 341.97 104.704ZM340.05 104.944C340.05 104.677 339.943 104.469 339.73 104.32C339.517 104.171 339.149 104.096 338.626 104.096H335.778C335.49 104.309 335.346 104.597 335.346 104.96C335.346 105.28 335.479 105.531 335.746 105.712C336.013 105.893 336.466 105.984 337.106 105.984H338.13C338.802 105.984 339.287 105.899 339.586 105.728C339.895 105.557 340.05 105.296 340.05 104.944ZM337.586 99.696C338.589 99.696 339.09 99.2693 339.09 98.416V98.144C339.09 97.2907 338.589 96.864 337.586 96.864C336.583 96.864 336.082 97.2907 336.082 98.144V98.416C336.082 99.2693 336.583 99.696 337.586 99.696Z" fill="#FF832B"/>
<rect x="272.5" y="84.5" width="77" height="27" rx="13.5" stroke="black" shape-rendering="crispEdges"/>
</g>
</g>
<defs>
<filter id="filter0_d_12580_287017" x="268" y="84" width="82" height="33" filterUnits="userSpaceOnUse" color-interpolation-filters="sRGB">
<feFlood flood-opacity="0" result="BackgroundImageFix"/>
<feColorMatrix in="SourceAlpha" type="matrix" values="0 0 0 0 0 0 0 0 0 0 0 0 0 0 0 0 0 0 127 0" result="hardAlpha"/>
<feOffset dx="-4" dy="5"/>
<feComposite in2="hardAlpha" operator="out"/>
<feColorMatrix type="matrix" values="0 0 0 0 0 0 0 0 0 0 0 0 0 0 0 0 0 0 0.24 0"/>
<feBlend mode="normal" in2="BackgroundImageFix" result="effect1_dropShadow_12580_287017"/>
<feBlend mode="normal" in="SourceGraphic" in2="effect1_dropShadow_12580_287017" result="shape"/>
</filter>
<clipPath id="clip0_12580_287017">
<rect width="480" height="230" fill="white"/>
</clipPath>
</defs>
</svg>
