<svg width="1920" height="496" viewBox="0 0 1920 496" fill="none" xmlns="http://www.w3.org/2000/svg">
<g clip-path="url(#clip0_12663_302606)">
<path d="M0 496H25.8783" stroke="white" stroke-miterlimit="10"/>
<path d="M0 249.078H25.8783" stroke="white" stroke-miterlimit="10"/>
<path d="M0 2.15649H25.8783" stroke="white" stroke-miterlimit="10"/>
<path d="M0 19.9348H16.0511" stroke="white" stroke-miterlimit="10"/>
<path d="M0 37.2195H16.0511" stroke="white" stroke-miterlimit="10"/>
<path d="M0 54.9978H16.0511" stroke="white" stroke-miterlimit="10"/>
<path d="M0 72.7761H16.0511" stroke="white" stroke-miterlimit="10"/>
<path d="M0 90.5544H16.0511" stroke="white" stroke-miterlimit="10"/>
<path d="M0 107.839H16.0511" stroke="white" stroke-miterlimit="10"/>
<path d="M0 125.617H16.0511" stroke="white" stroke-miterlimit="10"/>
<path d="M0 143.396H16.0511" stroke="white" stroke-miterlimit="10"/>
<path d="M0 160.68H16.0511" stroke="white" stroke-miterlimit="10"/>
<path d="M0 178.458H16.0511" stroke="white" stroke-miterlimit="10"/>
<path d="M0 196.237H16.0511" stroke="white" stroke-miterlimit="10"/>
<path d="M0 214.015H16.0511" stroke="white" stroke-miterlimit="10"/>
<path d="M0 231.3H16.0511" stroke="white" stroke-miterlimit="10"/>
<path d="M0 266.857H16.0511" stroke="white" stroke-miterlimit="10"/>
<path d="M0 284.141H16.0511" stroke="white" stroke-miterlimit="10"/>
<path d="M0 301.92H16.0511" stroke="white" stroke-miterlimit="10"/>
<path d="M0 319.698H16.0511" stroke="white" stroke-miterlimit="10"/>
<path d="M0 337.476H16.0511" stroke="white" stroke-miterlimit="10"/>
<path d="M0 354.761H16.0511" stroke="white" stroke-miterlimit="10"/>
<path d="M0 372.539H16.0511" stroke="white" stroke-miterlimit="10"/>
<path d="M0 390.318H16.0511" stroke="white" stroke-miterlimit="10"/>
<path d="M0 407.602H16.0511" stroke="white" stroke-miterlimit="10"/>
<path d="M0 425.38H16.0511" stroke="white" stroke-miterlimit="10"/>
<path d="M0 443.159H16.0511" stroke="white" stroke-miterlimit="10"/>
<path d="M0 460.937H16.0511" stroke="white" stroke-miterlimit="10"/>
<path d="M0 478.222H16.0511" stroke="white" stroke-miterlimit="10"/>
<path d="M1747.52 465.454C1533.83 465.454 1533.83 32.0493 1320.63 32.0493C1106.94 32.0493 1106.94 465.454 893.748 465.454C680.058 465.454 680.058 32.0493 466.861 32.0493C253.664 32.0493 252.677 465.454 38.9873 465.454" stroke="white" stroke-miterlimit="10"/>
<path d="M2059.91 465.454C1846.22 465.454 1846.22 32.0493 1633.03 32.0493C1419.34 32.0493 1419.34 465.454 1206.14 465.454C991.956 465.454 991.956 32.5424 778.266 32.5424C564.576 32.5424 564.576 465.947 351.379 465.947" stroke="white" stroke-miterlimit="10"/>
<path d="M1903.47 465.454C1689.78 465.454 1689.78 32.0493 1476.58 32.0493C1262.89 32.0493 1262.89 465.454 1049.7 465.454C836.007 465.454 836.007 32.0493 622.81 32.0493C409.614 32.0493 408.627 465.454 194.937 465.454" stroke="white" stroke-miterlimit="10"/>
<path d="M3455.45 465.454C3241.76 465.454 3241.76 32.0493 3028.56 32.0493C2814.87 32.0493 2814.87 465.454 2601.67 465.454C2387.98 465.454 2387.98 32.0493 2174.79 32.0493C1961.59 32.0493 1960.6 465.454 1746.91 465.454" stroke="white" stroke-miterlimit="10"/>
<path d="M3611.4 465.454C3397.71 465.454 3397.71 32.0493 3184.51 32.0493C2970.82 32.0493 2970.82 465.454 2757.62 465.454C2543.93 465.454 2543.93 32.0493 2330.74 32.0493C2117.54 32.0493 2116.55 465.454 1902.86 465.454" stroke="white" stroke-miterlimit="10"/>
</g>
<defs>
<clipPath id="clip0_12663_302606">
<rect width="3455" height="496" fill="white"/>
</clipPath>
</defs>
</svg>
