<svg width="757" height="304" viewBox="0 0 757 304" fill="none" xmlns="http://www.w3.org/2000/svg">
<rect x="26" y="242" width="18" height="18" fill="white"/>
<rect x="8" y="260" width="18" height="18" fill="white"/>
<rect x="44" y="62" width="18" height="18" fill="white"/>
<rect x="188" y="62" width="18" height="18" fill="white"/>
<rect x="44" y="80" width="18" height="18" fill="white"/>
<rect x="188" y="80" width="18" height="18" fill="white"/>
<rect x="44" y="98" width="18" height="18" fill="white"/>
<rect x="188" y="98" width="18" height="18" fill="white"/>
<rect x="44" y="116" width="18" height="18" fill="white"/>
<rect x="44" y="134" width="18" height="18" fill="white"/>
<rect x="188" y="116" width="18" height="18" fill="white"/>
<rect x="188" y="134" width="18" height="18" fill="white"/>
<rect x="80" y="44" width="18" height="18" fill="white"/>
<rect x="62" y="44" width="18" height="18" fill="white"/>
<rect x="80" y="152" width="18" height="18" fill="white"/>
<rect x="62" y="152" width="18" height="18" fill="white"/>
<rect x="80" y="188" width="18" height="18" fill="white"/>
<rect x="80" y="242" width="18" height="18" fill="white"/>
<rect x="62" y="224" width="18" height="18" fill="white"/>
<rect x="80" y="206" width="18" height="18" fill="white"/>
<rect x="80" y="278" width="18" height="18" fill="white"/>
<rect x="80" y="260" width="18" height="18" fill="white"/>
<rect x="80" y="8" width="18" height="18" fill="white"/>
<rect x="62" y="188" width="18" height="18" fill="white"/>
<rect x="62" y="242" width="18" height="18" fill="white"/>
<rect x="62" y="278" width="18" height="18" fill="white"/>
<rect x="62" y="8" width="18" height="18" fill="white"/>
<rect x="98" y="44" width="18" height="18" fill="white"/>
<rect x="98" y="152" width="18" height="18" fill="white"/>
<rect x="98" y="188" width="18" height="18" fill="white"/>
<rect x="98" y="242" width="18" height="18" fill="white"/>
<rect x="98" y="278" width="18" height="18" fill="white"/>
<rect x="98" y="8" width="18" height="18" fill="white"/>
<rect x="116" y="44" width="18" height="18" fill="white"/>
<rect x="116" y="152" width="18" height="18" fill="white"/>
<rect x="116" y="188" width="18" height="18" fill="white"/>
<rect x="116" y="278" width="18" height="18" fill="white"/>
<rect x="116" y="242" width="18" height="18" fill="white"/>
<rect x="116" y="260" width="18" height="18" fill="white"/>
<rect x="116" y="8" width="18" height="18" fill="white"/>
<rect x="134" y="44" width="18" height="18" fill="white"/>
<rect x="134" y="152" width="18" height="18" fill="white"/>
<rect x="134" y="188" width="18" height="18" fill="white"/>
<rect x="134" y="242" width="18" height="18" fill="white"/>
<rect x="134" y="278" width="18" height="18" fill="white"/>
<rect x="134" y="8" width="18" height="18" fill="white"/>
<rect x="152" y="44" width="18" height="18" fill="white"/>
<rect x="152" y="152" width="18" height="18" fill="white"/>
<rect x="152" y="170" width="18" height="18" fill="white"/>
<rect x="152" y="278" width="18" height="18" fill="white"/>
<rect x="152" y="188" width="18" height="18" fill="white"/>
<rect x="152" y="242" width="18" height="18" fill="white"/>
<rect x="152" y="260" width="18" height="18" fill="white"/>
<rect x="152" y="8" width="18" height="18" fill="white"/>
<rect x="170" y="44" width="18" height="18" fill="white"/>
<rect x="170" y="152" width="18" height="18" fill="white"/>
<rect x="170" y="188" width="18" height="18" fill="white"/>
<rect x="170" y="242" width="18" height="18" fill="white"/>
<rect x="152" y="224" width="18" height="18" fill="white"/>
<rect x="170" y="206" width="18" height="18" fill="white"/>
<rect x="170" y="278" width="18" height="18" fill="white"/>
<rect x="170" y="8" width="18" height="18" fill="white"/>
<rect x="188" y="188" width="18" height="18" fill="white"/>
<rect x="188" y="242" width="18" height="18" fill="white"/>
<rect x="188" y="278" width="18" height="18" fill="white"/>
<rect x="188" y="8" width="18" height="18" fill="white"/>
<rect x="206" y="188" width="18" height="18" fill="white"/>
<rect x="206" y="242" width="18" height="18" fill="white"/>
<rect x="206" y="260" width="18" height="18" fill="white"/>
<rect x="260" y="188" width="18" height="18" fill="white"/>
<rect x="242" y="188" width="18" height="18" fill="white"/>
<rect x="260" y="224" width="18" height="18" fill="white"/>
<rect x="242" y="242" width="18" height="18" fill="white"/>
<rect x="242" y="260" width="18" height="18" fill="white"/>
<rect x="242" y="278" width="18" height="18" fill="white"/>
<rect x="260" y="260" width="18" height="18" fill="white"/>
<rect x="260" y="278" width="18" height="18" fill="white"/>
<rect x="278" y="206" width="18" height="18" fill="white"/>
<rect x="206" y="8" width="18" height="18" fill="white"/>
<rect x="8" y="44" width="18" height="18" fill="white"/>
<rect x="224" y="44" width="18" height="18" fill="white"/>
<rect x="242" y="62" width="18" height="18" fill="white"/>
<rect x="260" y="62" width="18" height="18" fill="white"/>
<rect x="8" y="26" width="18" height="18" fill="white"/>
<rect x="224" y="26" width="18" height="18" fill="white"/>
<rect x="242" y="44" width="18" height="18" fill="white"/>
<rect x="8" y="62" width="18" height="18" fill="white"/>
<rect x="224" y="62" width="18" height="18" fill="white"/>
<rect x="242" y="80" width="18" height="18" fill="white"/>
<rect x="260" y="80" width="18" height="18" fill="white"/>
<rect x="8" y="80" width="18" height="18" fill="white"/>
<rect x="224" y="80" width="18" height="18" fill="white"/>
<rect x="242" y="98" width="18" height="18" fill="white"/>
<rect x="260" y="98" width="18" height="18" fill="white"/>
<rect x="8" y="98" width="18" height="18" fill="white"/>
<rect x="224" y="98" width="18" height="18" fill="white"/>
<rect x="242" y="116" width="18" height="18" fill="white"/>
<rect x="260" y="116" width="18" height="18" fill="white"/>
<rect x="260" y="134" width="18" height="18" fill="white"/>
<rect x="8" y="116" width="18" height="18" fill="white"/>
<rect x="224" y="116" width="18" height="18" fill="white"/>
<rect x="242" y="134" width="18" height="18" fill="white"/>
<rect x="8" y="134" width="18" height="18" fill="white"/>
<rect x="224" y="134" width="18" height="18" fill="white"/>
<rect x="8" y="152" width="18" height="18" fill="white"/>
<rect x="8" y="170" width="18" height="18" fill="white"/>
<rect x="224" y="152" width="18" height="18" fill="white"/>
<rect x="242" y="152" width="18" height="18" fill="white"/>
<rect x="224" y="170" width="18" height="18" fill="white"/>
<rect x="44" y="278" width="18" height="18" fill="white"/>
<rect x="44" y="188" width="18" height="18" fill="white"/>
<rect x="26" y="188" width="18" height="18" fill="white"/>
<rect x="44" y="242" width="18" height="18" fill="white"/>
<rect x="44" y="260" width="18" height="18" fill="white"/>
<rect x="26" y="278" width="18" height="18" fill="white"/>
<rect x="8" y="278" width="18" height="18" fill="white"/>
<rect x="44" y="8" width="18" height="18" fill="white"/>
<rect x="26" y="8" width="18" height="18" fill="white"/>
<path d="M328 129V52H394V63H405V96H383V107H394V118H405V129H372V118H361V107H350V129H328ZM350 96H372V85H383V63H350V96Z" fill="white"/>
<path d="M416 129V52H493V63H438V85H482V96H438V118H493V129H416Z" fill="white"/>
<path d="M537 129V63H515V52H581V63H559V129H537Z" fill="white"/>
<path d="M592 129V52H658V63H669V96H647V107H658V118H669V129H636V118H625V107H614V129H592ZM614 96H636V85H647V63H614V96Z" fill="white"/>
<path d="M691 129V118H680V63H691V52H746V63H757V118H746V129H691ZM702 118H735V63H702V118Z" fill="white"/>
<path d="M328 241V164H394V175H405V208H394V219H350V241H328ZM350 208H383V175H350V208Z" fill="white"/>
<path d="M438 241V230H427V219H416V186H427V175H438V164H482V175H493V186H471V175H449V186H438V219H449V230H471V219H493V230H482V241H438Z" fill="white"/>
</svg>
