<svg width="101" height="40" viewBox="0 0 101 40" fill="none" xmlns="http://www.w3.org/2000/svg">
<rect x="3.42114" y="31.842" width="2.36842" height="2.36842" fill="white"/>
<rect x="1.05273" y="34.2104" width="2.36842" height="2.36842" fill="white"/>
<rect x="5.78955" y="8.15784" width="2.36842" height="2.36842" fill="white"/>
<rect x="24.7371" y="8.15784" width="2.36842" height="2.36842" fill="white"/>
<rect x="5.78955" y="10.5262" width="2.36842" height="2.36842" fill="white"/>
<rect x="24.7371" y="10.5262" width="2.36842" height="2.36842" fill="white"/>
<rect x="5.78955" y="12.8948" width="2.36842" height="2.36842" fill="white"/>
<rect x="24.7371" y="12.8948" width="2.36842" height="2.36842" fill="white"/>
<rect x="5.78955" y="15.2632" width="2.36842" height="2.36842" fill="white"/>
<rect x="5.78955" y="17.6316" width="2.36842" height="2.36842" fill="white"/>
<rect x="24.7371" y="15.2632" width="2.36842" height="2.36842" fill="white"/>
<rect x="24.7371" y="17.6316" width="2.36842" height="2.36842" fill="white"/>
<rect x="10.5264" y="5.78943" width="2.36842" height="2.36842" fill="white"/>
<rect x="8.15796" y="5.78943" width="2.36842" height="2.36842" fill="white"/>
<rect x="10.5264" y="20" width="2.36842" height="2.36842" fill="white"/>
<rect x="8.15796" y="20" width="2.36842" height="2.36842" fill="white"/>
<rect x="10.5264" y="24.7368" width="2.36842" height="2.36842" fill="white"/>
<rect x="10.5264" y="31.842" width="2.36842" height="2.36842" fill="white"/>
<rect x="8.15796" y="29.4736" width="2.36842" height="2.36842" fill="white"/>
<rect x="10.5264" y="27.1052" width="2.36842" height="2.36842" fill="white"/>
<rect x="10.5264" y="36.579" width="2.36842" height="2.36842" fill="white"/>
<rect x="10.5264" y="34.2104" width="2.36842" height="2.36842" fill="white"/>
<rect x="10.5264" y="1.05261" width="2.36842" height="2.36842" fill="white"/>
<rect x="8.15796" y="24.7368" width="2.36842" height="2.36842" fill="white"/>
<rect x="8.15796" y="31.842" width="2.36842" height="2.36842" fill="white"/>
<rect x="8.15796" y="36.579" width="2.36842" height="2.36842" fill="white"/>
<rect x="8.15796" y="1.05261" width="2.36842" height="2.36842" fill="white"/>
<rect x="12.8948" y="5.78943" width="2.36842" height="2.36842" fill="white"/>
<rect x="12.8948" y="20" width="2.36842" height="2.36842" fill="white"/>
<rect x="12.8948" y="24.7368" width="2.36842" height="2.36842" fill="white"/>
<rect x="12.8948" y="31.842" width="2.36842" height="2.36842" fill="white"/>
<rect x="12.8948" y="36.579" width="2.36842" height="2.36842" fill="white"/>
<rect x="12.8948" y="1.05261" width="2.36842" height="2.36842" fill="white"/>
<rect x="15.2632" y="5.78943" width="2.36842" height="2.36842" fill="white"/>
<rect x="15.2632" y="20" width="2.36842" height="2.36842" fill="white"/>
<rect x="15.2632" y="24.7368" width="2.36842" height="2.36842" fill="white"/>
<rect x="15.2632" y="36.579" width="2.36842" height="2.36842" fill="white"/>
<rect x="15.2632" y="31.842" width="2.36842" height="2.36842" fill="white"/>
<rect x="15.2632" y="34.2104" width="2.36842" height="2.36842" fill="white"/>
<rect x="15.2632" y="1.05261" width="2.36842" height="2.36842" fill="white"/>
<rect x="17.6316" y="5.78943" width="2.36842" height="2.36842" fill="white"/>
<rect x="17.6316" y="20" width="2.36842" height="2.36842" fill="white"/>
<rect x="17.6316" y="24.7368" width="2.36842" height="2.36842" fill="white"/>
<rect x="17.6316" y="31.842" width="2.36842" height="2.36842" fill="white"/>
<rect x="17.6316" y="36.579" width="2.36842" height="2.36842" fill="white"/>
<rect x="17.6316" y="1.05261" width="2.36842" height="2.36842" fill="white"/>
<rect x="20" y="5.78943" width="2.36842" height="2.36842" fill="white"/>
<rect x="20" y="20" width="2.36842" height="2.36842" fill="white"/>
<rect x="20" y="22.3684" width="2.36842" height="2.36842" fill="white"/>
<rect x="20" y="36.579" width="2.36842" height="2.36842" fill="white"/>
<rect x="20" y="24.7368" width="2.36842" height="2.36842" fill="white"/>
<rect x="20" y="31.842" width="2.36842" height="2.36842" fill="white"/>
<rect x="20" y="34.2104" width="2.36842" height="2.36842" fill="white"/>
<rect x="20" y="1.05261" width="2.36842" height="2.36842" fill="white"/>
<rect x="22.3684" y="5.78943" width="2.36842" height="2.36842" fill="white"/>
<rect x="22.3684" y="20" width="2.36842" height="2.36842" fill="white"/>
<rect x="22.3684" y="24.7368" width="2.36842" height="2.36842" fill="white"/>
<rect x="22.3684" y="31.842" width="2.36842" height="2.36842" fill="white"/>
<rect x="20" y="29.4736" width="2.36842" height="2.36842" fill="white"/>
<rect x="22.3684" y="27.1052" width="2.36842" height="2.36842" fill="white"/>
<rect x="22.3684" y="36.579" width="2.36842" height="2.36842" fill="white"/>
<rect x="22.3684" y="1.05261" width="2.36842" height="2.36842" fill="white"/>
<rect x="24.7371" y="24.7368" width="2.36842" height="2.36842" fill="white"/>
<rect x="24.7371" y="31.842" width="2.36842" height="2.36842" fill="white"/>
<rect x="24.7371" y="36.579" width="2.36842" height="2.36842" fill="white"/>
<rect x="24.7371" y="1.05261" width="2.36842" height="2.36842" fill="white"/>
<rect x="27.1055" y="24.7368" width="2.36842" height="2.36842" fill="white"/>
<rect x="27.1055" y="31.842" width="2.36842" height="2.36842" fill="white"/>
<rect x="27.1055" y="34.2104" width="2.36842" height="2.36842" fill="white"/>
<rect x="34.2107" y="24.7368" width="2.36842" height="2.36842" fill="white"/>
<rect x="31.8423" y="24.7368" width="2.36842" height="2.36842" fill="white"/>
<rect x="34.2107" y="29.4736" width="2.36842" height="2.36842" fill="white"/>
<rect x="31.8423" y="31.842" width="2.36842" height="2.36842" fill="white"/>
<rect x="31.8423" y="34.2104" width="2.36842" height="2.36842" fill="white"/>
<rect x="31.8423" y="36.579" width="2.36842" height="2.36842" fill="white"/>
<rect x="34.2107" y="34.2104" width="2.36842" height="2.36842" fill="white"/>
<rect x="34.2107" y="36.579" width="2.36842" height="2.36842" fill="white"/>
<rect x="36.5791" y="27.1052" width="2.36842" height="2.36842" fill="white"/>
<rect x="27.1055" y="1.05261" width="2.36842" height="2.36842" fill="white"/>
<rect x="1.05273" y="5.78943" width="2.36842" height="2.36842" fill="white"/>
<rect x="29.4739" y="5.78943" width="2.36842" height="2.36842" fill="white"/>
<rect x="31.8423" y="8.15784" width="2.36842" height="2.36842" fill="white"/>
<rect x="34.2107" y="8.15784" width="2.36842" height="2.36842" fill="white"/>
<rect x="1.05273" y="3.42102" width="2.36842" height="2.36842" fill="white"/>
<rect x="29.4739" y="3.42102" width="2.36842" height="2.36842" fill="white"/>
<rect x="31.8423" y="5.78943" width="2.36842" height="2.36842" fill="white"/>
<rect x="1.05273" y="8.15784" width="2.36842" height="2.36842" fill="white"/>
<rect x="29.4739" y="8.15784" width="2.36842" height="2.36842" fill="white"/>
<rect x="31.8423" y="10.5262" width="2.36842" height="2.36842" fill="white"/>
<rect x="34.2107" y="10.5262" width="2.36842" height="2.36842" fill="white"/>
<rect x="1.05273" y="10.5262" width="2.36842" height="2.36842" fill="white"/>
<rect x="29.4739" y="10.5262" width="2.36842" height="2.36842" fill="white"/>
<rect x="31.8423" y="12.8948" width="2.36842" height="2.36842" fill="white"/>
<rect x="34.2107" y="12.8948" width="2.36842" height="2.36842" fill="white"/>
<rect x="1.05273" y="12.8948" width="2.36842" height="2.36842" fill="white"/>
<rect x="29.4739" y="12.8948" width="2.36842" height="2.36842" fill="white"/>
<rect x="31.8423" y="15.2632" width="2.36842" height="2.36842" fill="white"/>
<rect x="34.2107" y="15.2632" width="2.36842" height="2.36842" fill="white"/>
<rect x="34.2107" y="17.6316" width="2.36842" height="2.36842" fill="white"/>
<rect x="1.05273" y="15.2632" width="2.36842" height="2.36842" fill="white"/>
<rect x="29.4739" y="15.2632" width="2.36842" height="2.36842" fill="white"/>
<rect x="31.8423" y="17.6316" width="2.36842" height="2.36842" fill="white"/>
<rect x="1.05273" y="17.6316" width="2.36842" height="2.36842" fill="white"/>
<rect x="29.4739" y="17.6316" width="2.36842" height="2.36842" fill="white"/>
<rect x="1.05273" y="20" width="2.36842" height="2.36842" fill="white"/>
<rect x="1.05273" y="22.3684" width="2.36842" height="2.36842" fill="white"/>
<rect x="29.4739" y="20" width="2.36842" height="2.36842" fill="white"/>
<rect x="31.8423" y="20" width="2.36842" height="2.36842" fill="white"/>
<rect x="29.4739" y="22.3684" width="2.36842" height="2.36842" fill="white"/>
<rect x="5.78955" y="36.579" width="2.36842" height="2.36842" fill="white"/>
<rect x="5.78955" y="24.7368" width="2.36842" height="2.36842" fill="white"/>
<rect x="3.42114" y="24.7368" width="2.36842" height="2.36842" fill="white"/>
<rect x="5.78955" y="31.842" width="2.36842" height="2.36842" fill="white"/>
<rect x="5.78955" y="34.2104" width="2.36842" height="2.36842" fill="white"/>
<rect x="3.42114" y="36.579" width="2.36842" height="2.36842" fill="white"/>
<rect x="1.05273" y="36.579" width="2.36842" height="2.36842" fill="white"/>
<rect x="5.78955" y="1.05261" width="2.36842" height="2.36842" fill="white"/>
<rect x="3.42114" y="1.05261" width="2.36842" height="2.36842" fill="white"/>
<path d="M46.0526 18.2236V16.4473H49.6052V7.56574H46.0526V5.78943H56.7105V7.56574H53.1579V16.4473H56.7105V18.2236H46.0526Z" fill="white"/>
<path d="M62.0394 18.2236V16.4473H60.2631V14.671H58.4868V9.34206H60.2631V7.56574H62.0394V5.78943H69.1447V7.56574H70.921V9.34206H67.3684V7.56574H63.8158V9.34206H62.0394V14.671H63.8158V16.4473H67.3684V14.671H70.921V16.4473H69.1447V18.2236H62.0394Z" fill="white"/>
<path d="M72.6973 18.2236V5.78943H85.1315V7.56574H76.25V11.1184H83.3552V12.8947H76.25V16.4473H85.1315V18.2236H72.6973Z" fill="white"/>
<path d="M86.9079 18.2236V5.78943H95.7894V7.56574H97.5658V9.34206H99.3421V14.671H97.5658V16.4473H95.7894V18.2236H86.9079ZM90.4605 16.4473H94.0131V14.671H95.7894V9.34206H94.0131V7.56574H90.4605V16.4473Z" fill="white"/>
<path d="M49.5394 34.2105V23.5526H45.9868V21.7763H56.6447V23.5526H53.0921V34.2105H49.5394Z" fill="white"/>
<path d="M58.421 34.2105V21.7763H70.8552V23.5526H61.9737V27.1052H69.0789V28.8815H61.9737V32.4342H70.8552V34.2105H58.421Z" fill="white"/>
<path d="M72.6316 34.2105V21.7763H85.0658V23.5526H76.1842V27.1052H83.2894V28.8815H76.1842V32.4342H85.0658V34.2105H72.6316Z" fill="white"/>
</svg>
